  0
SECTION
  2
HEADER
  9
$ACADVER
  1
AC1014
  9
$HANDSEED
  5
FFFF
  9
$INSUNITS
 70
     4
  9
$MEASUREMENT
 70
     1
  0
ENDSEC
  0
SECTION
  2
TABLES
  0
TABLE
  2
VPORT
  5
8
330
0
100
AcDbSymbolTable
 70
     4
  0
VPORT
  5
2E
330
8
100
AcDbSymbolTableRecord
100
AcDbViewportTableRecord
  2
*ACTIVE
 70
     0
 10
0.0
 20
0.0
 11
1.0
 21
1.0
 12
210.0
 22
148.5
 13
0.0
 23
0.0
 14
10.0
 24
10.0
 15
10.0
 25
10.0
 16
0.0
 26
0.0
 36
1.0
 17
0.0
 27
0.0
 37
0.0
 40
341.0
 41
1.24
 42
50.0
 43
0.0
 44
0.0
 50
0.0
 51
0.0
 71
     0
 72
   100
 73
     1
 74
     3
 75
     0
 76
     0
 77
     0
 78
     0
  0
ENDTAB
  0
TABLE
  2
LTYPE
  5
5
330
0
100
AcDbSymbolTable
 70
     1
  0
LTYPE
  5
14
330
5
100
AcDbSymbolTableRecord
100
AcDbLinetypeTableRecord
  2
BYBLOCK
 70
     0
  3

 72
    65
 73
     0
 40
0.0
  0
LTYPE
  5
15
330
5
100
AcDbSymbolTableRecord
100
AcDbLinetypeTableRecord
  2
BYLAYER
 70
     0
  3

 72
    65
 73
     0
 40
0.0
  0
LTYPE
  5
16
330
5
100
AcDbSymbolTableRecord
100
AcDbLinetypeTableRecord
  2
CONTINUOUS
 70
     0
  3
Solid line
 72
    65
 73
     0
 40
0.0
  0
ENDTAB
  0
TABLE
  2
LAYER
  5
2
100
AcDbSymbolTable
 70
1
  0
LAYER
  5
50
100
AcDbSymbolTableRecord
100
AcDbLayerTableRecord
  2
0
 70
0
  6
CONTINUOUS
  0
ENDTAB
  0
TABLE
  2
STYLE
  5
3
330
0
100
AcDbSymbolTable
 70
     1
  0
STYLE
  5
11
330
3
100
AcDbSymbolTableRecord
100
AcDbTextStyleTableRecord
  2
STANDARD
 70
     0
 40
0.0
 41
1.0
 50
0.0
 71
     0
 42
2.5
  3
txt
  4

  0
ENDTAB
  0
TABLE
  2
VIEW
  5
6
330
0
100
AcDbSymbolTable
 70
     0
  0
ENDTAB
  0
TABLE
  2
UCS
  5
7
330
0
100
AcDbSymbolTable
 70
     0
  0
ENDTAB
  0
TABLE
  2
APPID
  5
9
330
0
100
AcDbSymbolTable
 70
     2
  0
APPID
  5
12
330
9
100
AcDbSymbolTableRecord
100
AcDbRegAppTableRecord
  2
ACAD
 70
     0
  0
ENDTAB
  0
TABLE
  2
DIMSTYLE
  5
A
330
0
100
AcDbSymbolTable
 70
     1
  0
DIMSTYLE
105
27
330
A
100
AcDbSymbolTableRecord
100
AcDbDimStyleTableRecord
  2
ISO-25
 70
     0
  3

  4

  5

  6

  7

 40
1.0
 41
2.5
 42
0.625
 43
3.75
 44
1.25
 45
0.0
 46
0.0
 47
0.0
 48
0.0
140
2.5
141
2.5
142
0.0
143
0.03937007874016
144
1.0
145
0.0
146
1.0
147
0.625
 71
     0
 72
     0
 73
     0
 74
     0
 75
     0
 76
     0
 77
     1
 78
     8
170
     0
171
     3
172
     1
173
     0
174
     0
175
     0
176
     0
177
     0
178
     0
270
     2
271
     2
272
     2
273
     2
274
     3
340
11
275
     0
280
     0
281
     0
282
     0
283
     0
284
     8
285
     0
286
     0
287
     3
288
     0
  0
ENDTAB
  0
TABLE
  2
BLOCK_RECORD
  5
1
330
0
100
AcDbSymbolTable
 70
     1
  0
BLOCK_RECORD
  5
1F
330
1
100
AcDbSymbolTableRecord
100
AcDbBlockTableRecord
  2
*MODEL_SPACE
  0
BLOCK_RECORD
  5
1B
330
1
100
AcDbSymbolTableRecord
100
AcDbBlockTableRecord
  2
*PAPER_SPACE
  0
ENDTAB
  0
ENDSEC
  0
SECTION
  2
BLOCKS
  0
BLOCK
  5
20
330
1F
100
AcDbEntity
  8
0
100
AcDbBlockBegin
  2
*MODEL_SPACE
 70
     0
 10
0.0
 20
0.0
 30
0.0
  3
*MODEL_SPACE
  1

  0
ENDBLK
  5
21
330
1F
100
AcDbEntity
  8
0
100
AcDbBlockEnd
  0
BLOCK
  5
1C
330
1B
100
AcDbEntity
 67
     1
  8
0
100
AcDbBlockBegin
  2
*PAPER_SPACE
  1

  0
ENDBLK
  5
1D
330
1B
100
AcDbEntity
 67
     1
  8
0
100
AcDbBlockEnd
  0
ENDSEC
  0
SECTION
  2
ENTITIES
  0
SPLINE
  5
100
100
AcDbEntity
  8
0
 62
1
100
AcDbSpline
 70
8
 71
3
 72
8
 73
4
 74
0
 40
0
 40
0
 40
0
 40
0
 40
1
 40
1
 40
1
 40
1
 10
27.156108
 20
59.819356
 30
0.0
 10
25.910461
 20
59.818609
 30
0.0
 10
24.779333
 20
59.092475
 30
0.0
 10
24.260082
 20
57.960235
 30
0.0
  0
SPLINE
  5
101
100
AcDbEntity
  8
0
 62
1
100
AcDbSpline
 70
8
 71
3
 72
8
 73
4
 74
0
 40
0
 40
0
 40
0
 40
0
 40
1
 40
1
 40
1
 40
1
 10
24.260082
 20
57.960235
 30
0.0
 10
23.830639
 20
58.324627
 30
0.0
 10
23.371501
 20
58.642280
 30
0.0
 10
22.888524
 20
58.882845
 30
0.0
  0
SPLINE
  5
102
100
AcDbEntity
  8
0
 62
1
100
AcDbSpline
 70
8
 71
3
 72
8
 73
4
 74
0
 40
0
 40
0
 40
0
 40
0
 40
1
 40
1
 40
1
 40
1
 10
22.888524
 20
58.882845
 30
0.0
 10
21.634810
 20
59.514247
 30
0.0
 10
20.227110
 20
59.839133
 30
0.0
 10
18.823275
 20
59.807515
 30
0.0
  0
SPLINE
  5
103
100
AcDbEntity
  8
0
 62
1
100
AcDbSpline
 70
8
 71
3
 72
8
 73
4
 74
0
 40
0
 40
0
 40
0
 40
0
 40
1
 40
1
 40
1
 40
1
 10
18.823275
 20
59.807515
 30
0.0
 10
16.012793
 20
59.762939
 30
0.0
 10
13.267470
 20
58.236609
 30
0.0
 10
11.757488
 20
55.860680
 30
0.0
  0
SPLINE
  5
104
100
AcDbEntity
  8
0
 62
1
100
AcDbSpline
 70
8
 71
3
 72
8
 73
4
 74
0
 40
0
 40
0
 40
0
 40
0
 40
1
 40
1
 40
1
 40
1
 10
11.757488
 20
55.860680
 30
0.0
 10
10.442599
 20
53.835815
 30
0.0
 10
10.025221
 20
51.244099
 30
0.0
 10
10.666007
 20
48.912786
 30
0.0
  0
SPLINE
  5
105
100
AcDbEntity
  8
0
 62
1
100
AcDbSpline
 70
8
 71
3
 72
8
 73
4
 74
0
 40
0
 40
0
 40
0
 40
0
 40
1
 40
1
 40
1
 40
1
 10
10.666007
 20
48.912786
 30
0.0
 10
11.045422
 20
47.517147
 30
0.0
 10
11.774075
 20
46.215422
 30
0.0
 10
12.779463
 20
45.175495
 30
0.0
  0
SPLINE
  5
106
100
AcDbEntity
  8
0
 62
1
100
AcDbSpline
 70
8
 71
3
 72
8
 73
4
 74
0
 40
0
 40
0
 40
0
 40
0
 40
1
 40
1
 40
1
 40
1
 10
12.779463
 20
45.175495
 30
0.0
 10
12.207417
 20
44.305504
 30
0.0
 10
11.713181
 20
43.384011
 30
0.0
 10
11.309054
 20
42.424140
 30
0.0
  0
SPLINE
  5
107
100
AcDbEntity
  8
0
 62
1
100
AcDbSpline
 70
8
 71
3
 72
8
 73
4
 74
0
 40
0
 40
0
 40
0
 40
0
 40
1
 40
1
 40
1
 40
1
 10
11.309054
 20
42.424140
 30
0.0
 10
10.730065
 20
43.340865
 30
0.0
 10
9.804870
 20
44.030931
 30
0.0
 10
8.761066
 20
44.321875
 30
0.0
  0
SPLINE
  5
108
100
AcDbEntity
  8
0
 62
1
100
AcDbSpline
 70
8
 71
3
 72
8
 73
4
 74
0
 40
0
 40
0
 40
0
 40
0
 40
1
 40
1
 40
1
 40
1
 10
8.761066
 20
44.321875
 30
0.0
 10
7.730657
 20
44.650853
 30
0.0
 10
6.580283
 20
44.680683
 30
0.0
 10
5.566428
 20
44.275023
 30
0.0
  0
SPLINE
  5
109
100
AcDbEntity
  8
0
 62
1
100
AcDbSpline
 70
8
 71
3
 72
8
 73
4
 74
0
 40
0
 40
0
 40
0
 40
0
 40
1
 40
1
 40
1
 40
1
 10
5.566428
 20
44.275023
 30
0.0
 10
4.282181
 20
43.777351
 30
0.0
 10
3.252838
 20
42.650961
 30
0.0
 10
2.898995
 20
41.315154
 30
0.0
  0
SPLINE
  5
10a
100
AcDbEntity
  8
0
 62
1
100
AcDbSpline
 70
8
 71
3
 72
8
 73
4
 74
0
 40
0
 40
0
 40
0
 40
0
 40
1
 40
1
 40
1
 40
1
 10
2.898995
 20
41.315154
 30
0.0
 10
2.718869
 20
40.691280
 30
0.0
 10
2.593519
 20
40.055231
 30
0.0
 10
2.425334
 20
39.429261
 30
0.0
  0
SPLINE
  5
10b
100
AcDbEntity
  8
0
 62
1
100
AcDbSpline
 70
8
 71
3
 72
8
 73
4
 74
0
 40
0
 40
0
 40
0
 40
0
 40
1
 40
1
 40
1
 40
1
 10
2.425334
 20
39.429261
 30
0.0
 10
1.697705
 20
36.482073
 30
0.0
 10
0.952951
 20
33.539077
 30
0.0
 10
0.263998
 20
30.582604
 30
0.0
  0
SPLINE
  5
10c
100
AcDbEntity
  8
0
 62
1
100
AcDbSpline
 70
8
 71
3
 72
8
 73
4
 74
0
 40
0
 40
0
 40
0
 40
0
 40
1
 40
1
 40
1
 40
1
 10
0.263998
 20
30.582604
 30
0.0
 10
0.018928
 20
28.973824
 30
0.0
 10
0.760454
 20
27.266463
 30
0.0
 10
2.087078
 20
26.331492
 30
0.0
  0
SPLINE
  5
10d
100
AcDbEntity
  8
0
 62
1
100
AcDbSpline
 70
8
 71
3
 72
8
 73
4
 74
0
 40
0
 40
0
 40
0
 40
0
 40
1
 40
1
 40
1
 40
1
 10
2.087078
 20
26.331492
 30
0.0
 10
2.335291
 20
25.142489
 30
0.0
 10
2.594790
 20
23.955804
 30
0.0
 10
2.847510
 20
22.767705
 30
0.0
  0
SPLINE
  5
10e
100
AcDbEntity
  8
0
 62
1
100
AcDbSpline
 70
8
 71
3
 72
8
 73
4
 74
0
 40
0
 40
0
 40
0
 40
0
 40
1
 40
1
 40
1
 40
1
 10
2.847510
 20
22.767705
 30
0.0
 10
1.535155
 20
21.489645
 30
0.0
 10
0.944160
 20
19.507451
 30
0.0
 10
1.372983
 20
17.721665
 30
0.0
  0
SPLINE
  5
10f
100
AcDbEntity
  8
0
 62
1
100
AcDbSpline
 70
8
 71
3
 72
8
 73
4
 74
0
 40
0
 40
0
 40
0
 40
0
 40
1
 40
1
 40
1
 40
1
 10
1.372983
 20
17.721665
 30
0.0
 10
1.772239
 20
15.955320
 30
0.0
 10
3.121089
 20
14.427932
 30
0.0
 10
4.839461
 20
13.848453
 30
0.0
  0
SPLINE
  5
110
100
AcDbEntity
  8
0
 62
1
100
AcDbSpline
 70
8
 71
3
 72
8
 73
4
 74
0
 40
0
 40
0
 40
0
 40
0
 40
1
 40
1
 40
1
 40
1
 10
4.839461
 20
13.848453
 30
0.0
 10
5.597710
 20
13.586610
 30
0.0
 10
5.423385
 20
13.651738
 30
0.0
 10
7.218064
 20
13.604415
 30
0.0
  0
SPLINE
  5
111
100
AcDbEntity
  8
0
 62
1
100
AcDbSpline
 70
8
 71
3
 72
8
 73
4
 74
0
 40
0
 40
0
 40
0
 40
0
 40
1
 40
1
 40
1
 40
1
 10
7.218064
 20
13.604415
 30
0.0
 10
9.012742
 20
13.557095
 30
0.0
 10
11.586254
 20
11.414612
 30
0.0
 10
10.325692
 20
9.263205
 30
0.0
  0
SPLINE
  5
112
100
AcDbEntity
  8
0
 62
1
100
AcDbSpline
 70
8
 71
3
 72
8
 73
4
 74
0
 40
0
 40
0
 40
0
 40
0
 40
1
 40
1
 40
1
 40
1
 10
10.325692
 20
9.263205
 30
0.0
 10
9.065130
 20
7.111799
 30
0.0
 10
7.669283
 20
4.775752
 30
0.0
 10
7.746813
 20
2.211313
 30
0.0
  0
SPLINE
  5
113
100
AcDbEntity
  8
0
 62
1
100
AcDbSpline
 70
8
 71
3
 72
8
 73
4
 74
0
 40
0
 40
0
 40
0
 40
0
 40
1
 40
1
 40
1
 40
1
 10
7.746813
 20
2.211313
 30
0.0
 10
7.745363
 20
1.534739
 30
0.0
 10
7.744273
 20
0.857836
 30
0.0
 10
7.742703
 20
0.181262
 30
0.0
  0
SPLINE
  5
114
100
AcDbEntity
  8
0
 62
1
100
AcDbSpline
 70
8
 71
3
 72
8
 73
4
 74
0
 40
0
 40
0
 40
0
 40
0
 40
1
 40
1
 40
1
 40
1
 10
7.742703
 20
0.181262
 30
0.0
 10
14.303328
 20
0.182362
 30
0.0
 10
20.863743
 20
0.179762
 30
0.0
 10
27.424353
 20
0.186462
 30
0.0
  0
SPLINE
  5
115
100
AcDbEntity
  8
0
 62
1
100
AcDbSpline
 70
8
 71
3
 72
8
 73
4
 74
0
 40
0
 40
0
 40
0
 40
0
 40
1
 40
1
 40
1
 40
1
 10
27.424353
 20
0.186462
 30
0.0
 10
28.444775
 20
0.197512
 30
0.0
 10
29.465176
 20
0.188762
 30
0.0
 10
30.485646
 20
0.191662
 30
0.0
  0
SPLINE
  5
116
100
AcDbEntity
  8
0
 62
1
100
AcDbSpline
 70
8
 71
3
 72
8
 73
4
 74
0
 40
0
 40
0
 40
0
 40
0
 40
1
 40
1
 40
1
 40
1
 10
46.600935
 20
0.191662
 30
0.0
 10
46.574765
 20
1.603178
 30
0.0
 10
46.679365
 20
3.028876
 30
0.0
 10
46.428461
 20
4.426297
 30
0.0
  0
SPLINE
  5
117
100
AcDbEntity
  8
0
 62
1
100
AcDbSpline
 70
8
 71
3
 72
8
 73
4
 74
0
 40
0
 40
0
 40
0
 40
0
 40
1
 40
1
 40
1
 40
1
 10
46.428461
 20
4.426297
 30
0.0
 10
46.085471
 20
6.221342
 30
0.0
 10
44.931059
 20
7.707783
 30
0.0
 10
44.021542
 20
9.275149
 30
0.0
  0
SPLINE
  5
118
100
AcDbEntity
  8
0
 62
1
100
AcDbSpline
 70
8
 71
3
 72
8
 73
4
 74
0
 40
0
 40
0
 40
0
 40
0
 40
1
 40
1
 40
1
 40
1
 10
44.021542
 20
9.275149
 30
0.0
 10
43.112024
 20
10.842516
 30
0.0
 10
43.814755
 20
12.557246
 30
0.0
 10
45.843077
 20
13.367688
 30
0.0
  0
SPLINE
  5
119
100
AcDbEntity
  8
0
 62
1
100
AcDbSpline
 70
8
 71
3
 72
8
 73
4
 74
0
 40
0
 40
0
 40
0
 40
0
 40
1
 40
1
 40
1
 40
1
 10
45.843077
 20
13.367688
 30
0.0
 10
47.871400
 20
14.178130
 30
0.0
 10
48.994500
 20
13.514323
 30
0.0
 10
50.338739
 20
14.339723
 30
0.0
  0
SPLINE
  5
11a
100
AcDbEntity
  8
0
 62
1
100
AcDbSpline
 70
8
 71
3
 72
8
 73
4
 74
0
 40
0
 40
0
 40
0
 40
0
 40
1
 40
1
 40
1
 40
1
 10
50.338739
 20
14.339723
 30
0.0
 10
51.729662
 20
15.177444
 30
0.0
 10
52.667426
 20
16.693387
 30
0.0
 10
52.859440
 20
18.300458
 30
0.0
  0
SPLINE
  5
11b
100
AcDbEntity
  8
0
 62
1
100
AcDbSpline
 70
8
 71
3
 72
8
 73
4
 74
0
 40
0
 40
0
 40
0
 40
0
 40
1
 40
1
 40
1
 40
1
 10
52.859440
 20
18.300458
 30
0.0
 10
52.976604
 20
19.244331
 30
0.0
 10
52.832100
 20
20.217991
 30
0.0
 10
52.445501
 20
21.086824
 30
0.0
  0
SPLINE
  5
11c
100
AcDbEntity
  8
0
 62
1
100
AcDbSpline
 70
8
 71
3
 72
8
 73
4
 74
0
 40
0
 40
0
 40
0
 40
0
 40
1
 40
1
 40
1
 40
1
 10
52.445501
 20
21.086824
 30
0.0
 10
52.170812
 20
21.714331
 30
0.0
 10
51.776717
 20
22.289460
 30
0.0
 10
51.287606
 20
22.768837
 30
0.0
  0
SPLINE
  5
11d
100
AcDbEntity
  8
0
 62
1
100
AcDbSpline
 70
8
 71
3
 72
8
 73
4
 74
0
 40
0
 40
0
 40
0
 40
0
 40
1
 40
1
 40
1
 40
1
 10
51.287606
 20
22.768837
 30
0.0
 10
51.543561
 20
23.958367
 30
0.0
 10
51.799290
 20
25.147729
 30
0.0
 10
52.055245
 20
26.337258
 30
0.0
  0
SPLINE
  5
11e
100
AcDbEntity
  8
0
 62
1
100
AcDbSpline
 70
8
 71
3
 72
8
 73
4
 74
0
 40
0
 40
0
 40
0
 40
0
 40
1
 40
1
 40
1
 40
1
 10
52.055245
 20
26.337258
 30
0.0
 10
53.345739
 20
27.254329
 30
0.0
 10
54.090367
 20
28.902115
 30
0.0
 10
53.882960
 20
30.478192
 30
0.0
  0
SPLINE
  5
11f
100
AcDbEntity
  8
0
 62
1
100
AcDbSpline
 70
8
 71
3
 72
8
 73
4
 74
0
 40
0
 40
0
 40
0
 40
0
 40
1
 40
1
 40
1
 40
1
 10
53.882960
 20
30.478192
 30
0.0
 10
53.725647
 20
31.489058
 30
0.0
 10
53.419414
 20
32.467955
 30
0.0
 10
53.189973
 20
33.463289
 30
0.0
  0
SPLINE
  5
120
100
AcDbEntity
  8
0
 62
1
100
AcDbSpline
 70
8
 71
3
 72
8
 73
4
 74
0
 40
0
 40
0
 40
0
 40
0
 40
1
 40
1
 40
1
 40
1
 10
53.189973
 20
33.463289
 30
0.0
 10
52.829569
 20
34.942338
 30
0.0
 10
52.456535
 20
36.418501
 30
0.0
 10
52.090255
 20
37.896142
 30
0.0
  0
SPLINE
  5
121
100
AcDbEntity
  8
0
 62
1
100
AcDbSpline
 70
8
 71
3
 72
8
 73
4
 74
0
 40
0
 40
0
 40
0
 40
0
 40
1
 40
1
 40
1
 40
1
 10
52.090255
 20
37.896142
 30
0.0
 10
51.771321
 20
39.165787
 30
0.0
 10
51.451971
 20
40.436139
 30
0.0
 10
51.113586
 20
41.700879
 30
0.0
  0
SPLINE
  5
122
100
AcDbEntity
  8
0
 62
1
100
AcDbSpline
 70
8
 71
3
 72
8
 73
4
 74
0
 40
0
 40
0
 40
0
 40
0
 40
1
 40
1
 40
1
 40
1
 10
51.113586
 20
41.700879
 30
0.0
 10
50.534487
 20
43.253560
 30
0.0
 10
49.023818
 20
44.415943
 30
0.0
 10
47.371664
 20
44.556234
 30
0.0
  0
SPLINE
  5
123
100
AcDbEntity
  8
0
 62
1
100
AcDbSpline
 70
8
 71
3
 72
8
 73
4
 74
0
 40
0
 40
0
 40
0
 40
0
 40
1
 40
1
 40
1
 40
1
 10
47.371664
 20
44.556234
 30
0.0
 10
46.057819
 20
44.649914
 30
0.0
 10
44.694302
 20
44.262832
 30
0.0
 10
43.679681
 20
43.408635
 30
0.0
  0
SPLINE
  5
124
100
AcDbEntity
  8
0
 62
1
100
AcDbSpline
 70
8
 71
3
 72
8
 73
4
 74
0
 40
0
 40
0
 40
0
 40
0
 40
1
 40
1
 40
1
 40
1
 10
43.679681
 20
43.408635
 30
0.0
 10
43.406917
 20
43.174426
 30
0.0
 10
43.164975
 20
42.904970
 30
0.0
 10
42.957864
 20
42.611133
 30
0.0
  0
SPLINE
  5
125
100
AcDbEntity
  8
0
 62
1
100
AcDbSpline
 70
8
 71
3
 72
8
 73
4
 74
0
 40
0
 40
0
 40
0
 40
0
 40
1
 40
1
 40
1
 40
1
 10
42.957864
 20
42.611133
 30
0.0
 10
42.576551
 20
43.487463
 30
0.0
 10
42.119907
 20
44.330480
 30
0.0
 10
41.597118
 20
45.130291
 30
0.0
  0
SPLINE
  5
126
100
AcDbEntity
  8
0
 62
1
100
AcDbSpline
 70
8
 71
3
 72
8
 73
4
 74
0
 40
0
 40
0
 40
0
 40
0
 40
1
 40
1
 40
1
 40
1
 10
41.597118
 20
45.130291
 30
0.0
 10
43.282140
 20
46.896009
 30
0.0
 10
44.171023
 20
49.403147
 30
0.0
 10
43.941740
 20
51.837749
 30
0.0
  0
SPLINE
  5
127
100
AcDbEntity
  8
0
 62
1
100
AcDbSpline
 70
8
 71
3
 72
8
 73
4
 74
0
 40
0
 40
0
 40
0
 40
0
 40
1
 40
1
 40
1
 40
1
 10
43.941740
 20
51.837749
 30
0.0
 10
43.718122
 20
54.461776
 30
0.0
 10
42.222724
 20
56.953449
 30
0.0
 10
39.989749
 20
58.353065
 30
0.0
  0
SPLINE
  5
128
100
AcDbEntity
  8
0
 62
1
100
AcDbSpline
 70
8
 71
3
 72
8
 73
4
 74
0
 40
0
 40
0
 40
0
 40
0
 40
1
 40
1
 40
1
 40
1
 10
39.989749
 20
58.353065
 30
0.0
 10
38.055496
 20
59.603163
 30
0.0
 10
35.604930
 20
60.033076
 30
0.0
 10
33.365703
 20
59.485734
 30
0.0
  0
SPLINE
  5
129
100
AcDbEntity
  8
0
 62
1
100
AcDbSpline
 70
8
 71
3
 72
8
 73
4
 74
0
 40
0
 40
0
 40
0
 40
0
 40
1
 40
1
 40
1
 40
1
 10
33.365703
 20
59.485734
 30
0.0
 10
32.172465
 20
59.207783
 30
0.0
 10
31.044151
 20
58.663969
 30
0.0
 10
30.073757
 20
57.915958
 30
0.0
  0
SPLINE
  5
12a
100
AcDbEntity
  8
0
 62
1
100
AcDbSpline
 70
8
 71
3
 72
8
 73
4
 74
0
 40
0
 40
0
 40
0
 40
0
 40
1
 40
1
 40
1
 40
1
 10
30.073757
 20
57.915958
 30
0.0
 10
29.564465
 20
59.072644
 30
0.0
 10
28.419971
 20
59.819282
 30
0.0
 10
27.156108
 20
59.819356
 30
0.0
  0
LWPOLYLINE
  5
12b
100
AcDbEntity
  8
0
 62
1
100
AcDbPolyline
 90
2
 70
0
 10
30.485646
 20
0.191662
 30
0.0
 10
46.600935
 20
0.191662
 30
0.0
  0
LWPOLYLINE
  5
12c
100
AcDbEntity
  8
0
 62
1
100
AcDbPolyline
 90
1
 70
1
 10
27.156108
 20
59.819356
 30
0.0
  0
ENDSEC
  0
SECTION
  2
OBJECTS
  0
DICTIONARY
  5
C
330
0
100
AcDbDictionary
  3
ACAD_GROUP
350
D
  3
ACAD_MLINESTYLE
350
17
  0
DICTIONARY
  5
D
330
C
100
AcDbDictionary
  0
DICTIONARY
  5
1A
330
C
100
AcDbDictionary
  0
DICTIONARY
  5
17
330
C
100
AcDbDictionary
  3
STANDARD
350
18
  0
DICTIONARY
  5
19
330
C
100
AcDbDictionary
  0
ENDSEC
  0
EOF
