999
"DXF R12 Output" (www.mydxf.blogspot.com)
 0 
SECTION
 2 
HEADER
 9 
$ACADVER
 1 
AC1009
 9 
$EXTMIN
 10 
 0 
 20 
 0 
 9 
$EXTMAX
 10 
 8.5 
 20 
 11 
 0 
ENDSEC
 0 
SECTION
 2 
ENTITIES
0
LINE
8
Layer 1
10
20.844000
20
61.250600
11
19.198013
21
60.512320
0
LINE
8
Layer 1
10
19.198013
20
60.512320
11
17.484600
21
59.985000
0
LINE
8
Layer 1
10
17.484600
20
59.985000
11
15.697975
21
59.668591
0
LINE
8
Layer 1
10
15.697975
20
59.668591
11
13.844000
21
59.563120
0
LINE
8
Layer 1
10
13.844000
20
59.563120
11
11.155367
21
59.760204
0
LINE
8
Layer 1
10
11.155367
20
59.760204
11
8.761513
21
60.351695
0
LINE
8
Layer 1
10
8.761513
20
60.351695
11
6.662802
21
61.337948
0
LINE
8
Layer 1
10
6.662802
20
61.337948
11
4.859600
21
62.719320
0
LINE
8
Layer 1
10
4.859600
20
62.719320
11
3.409298
21
64.444981
0
LINE
8
Layer 1
10
3.409298
20
64.444981
11
2.374263
21
66.452258
0
LINE
8
Layer 1
10
2.374263
20
66.452258
11
1.753770
21
68.741515
0
LINE
8
Layer 1
10
1.753770
20
68.741515
11
1.547100
21
71.313120
0
LINE
8
Layer 1
10
1.547100
20
71.313120
11
1.753770
21
73.889904
0
LINE
8
Layer 1
10
1.753770
20
73.889904
11
2.374263
21
76.183245
0
LINE
8
Layer 1
10
2.374263
20
76.183245
11
3.409298
21
78.193873
0
LINE
8
Layer 1
10
3.409298
20
78.193873
11
4.859600
21
79.922520
0
LINE
8
Layer 1
10
4.859600
20
79.922520
11
6.662745
21
81.309678
0
LINE
8
Layer 1
10
6.662745
20
81.309678
11
8.761437
21
82.300957
0
LINE
8
Layer 1
10
8.761437
20
82.300957
11
11.155311
21
82.895993
0
LINE
8
Layer 1
10
11.155311
20
82.895993
11
13.844000
21
83.094420
0
LINE
8
Layer 1
10
13.844000
20
83.094420
11
15.698012
21
82.984067
0
LINE
8
Layer 1
10
15.698012
20
82.984067
11
17.484600
21
82.656920
0
LINE
8
Layer 1
10
17.484600
20
82.656920
11
19.198013
21
82.132994
0
LINE
8
Layer 1
10
19.198013
20
82.132994
11
20.844000
21
81.406920
0
LINE
8
Layer 1
10
20.844000
20
81.406920
11
20.844000
21
76.703800
0
LINE
8
Layer 1
10
20.844000
20
76.703800
11
19.229288
21
77.664230
0
LINE
8
Layer 1
10
19.229288
20
77.664230
11
17.640900
21
78.328800
0
LINE
8
Layer 1
10
17.640900
20
78.328800
11
16.017838
21
78.715516
0
LINE
8
Layer 1
10
16.017838
20
78.715516
11
14.312800
21
78.844420
0
LINE
8
Layer 1
10
14.312800
20
78.844420
11
12.831853
21
78.719237
0
LINE
8
Layer 1
10
12.831853
20
78.719237
11
11.517875
21
78.343931
0
LINE
8
Layer 1
10
11.517875
20
78.343931
11
10.370884
21
77.718870
0
LINE
8
Layer 1
10
10.370884
20
77.718870
11
9.390900
21
76.844420
0
LINE
8
Layer 1
10
9.390900
20
76.844420
11
8.604222
21
75.747267
0
LINE
8
Layer 1
10
8.604222
20
75.747267
11
8.042750
21
74.459670
0
LINE
8
Layer 1
10
8.042750
20
74.459670
11
7.706128
21
72.981648
0
LINE
8
Layer 1
10
7.706128
20
72.981648
11
7.594000
21
71.313220
0
LINE
8
Layer 1
10
7.594000
20
71.313220
11
7.706123
21
69.654908
0
LINE
8
Layer 1
10
7.706123
20
69.654908
11
8.042735
21
68.183345
0
LINE
8
Layer 1
10
8.042735
20
68.183345
11
8.604205
21
66.897820
0
LINE
8
Layer 1
10
8.604205
20
66.897820
11
9.390900
21
65.797620
0
LINE
8
Layer 1
10
9.390900
20
65.797620
11
10.370870
21
64.921537
0
LINE
8
Layer 1
10
10.370870
20
64.921537
11
11.517838
21
64.296658
0
LINE
8
Layer 1
10
11.517838
20
64.296658
11
12.831811
21
63.922259
0
LINE
8
Layer 1
10
12.831811
20
63.922259
11
14.312800
21
63.797620
0
LINE
8
Layer 1
10
14.312800
20
63.797620
11
16.017875
21
63.926527
0
LINE
8
Layer 1
10
16.017875
20
63.926527
11
17.640900
21
64.313240
0
LINE
8
Layer 1
10
17.640900
20
64.313240
11
19.229288
21
64.976325
0
LINE
8
Layer 1
10
19.229288
20
64.976325
11
20.844000
21
65.938240
0
LINE
8
Layer 1
10
20.844000
20
65.938240
11
20.844000
21
61.250600
0
LINE
8
Layer 1
10
15.250000
20
72.375600
11
13.828100
21
72.875600
0
LINE
8
Layer 1
10
13.828100
20
72.875600
11
12.406200
21
73.031850
0
LINE
8
Layer 1
10
12.406200
20
73.031850
11
11.417441
21
72.947682
0
LINE
8
Layer 1
10
11.417441
20
72.947682
11
10.548775
21
72.695418
0
LINE
8
Layer 1
10
10.548775
20
72.695418
11
9.800222
21
72.275420
0
LINE
8
Layer 1
10
9.800222
20
72.275420
11
9.171800
21
71.688050
0
LINE
8
Layer 1
10
9.171800
20
71.688050
11
8.679612
21
70.942441
0
LINE
8
Layer 1
10
8.679612
20
70.942441
11
8.328050
21
70.053273
0
LINE
8
Layer 1
10
8.328050
20
70.053273
11
8.117112
21
69.020543
0
LINE
8
Layer 1
10
8.117112
20
69.020543
11
8.046800
21
67.844250
0
LINE
8
Layer 1
10
8.046800
20
67.844250
11
8.046800
21
60.000500
0
LINE
8
Layer 1
10
8.046800
20
60.000500
11
2.609300
21
60.000500
0
LINE
8
Layer 1
10
2.609300
20
60.000500
11
2.609300
21
77.016400
0
LINE
8
Layer 1
10
2.609300
20
77.016400
11
8.046800
21
77.016400
0
LINE
8
Layer 1
10
8.046800
20
77.016400
11
8.046800
21
74.219500
0
LINE
8
Layer 1
10
8.046800
20
74.219500
11
9.170816
21
75.663850
0
LINE
8
Layer 1
10
9.170816
20
75.663850
11
10.453000
21
76.657000
0
LINE
8
Layer 1
10
10.453000
20
76.657000
11
11.948119
21
77.230239
0
LINE
8
Layer 1
10
11.948119
20
77.230239
11
13.718600
21
77.422620
0
LINE
8
Layer 1
10
13.718600
20
77.422620
11
14.296720
21
77.391370
0
LINE
8
Layer 1
10
14.296720
20
77.391370
11
15.234220
21
77.297620
0
LINE
8
Layer 1
10
15.234220
20
77.297620
11
15.250000
21
72.375600
0
LINE
8
Layer 1
10
19.594000
20
68.547500
11
19.594000
21
67.000600
0
LINE
8
Layer 1
10
19.594000
20
67.000600
11
6.875000
21
67.000600
0
LINE
8
Layer 1
10
6.875000
20
67.000600
11
7.036803
21
66.104798
0
LINE
8
Layer 1
10
7.036803
20
66.104798
11
7.322751
21
65.327263
0
LINE
8
Layer 1
10
7.322751
20
65.327263
11
7.732474
21
64.667645
0
LINE
8
Layer 1
10
7.732474
20
64.667645
11
8.265600
21
64.125600
0
LINE
8
Layer 1
10
8.265600
20
64.125600
11
8.916657
21
63.708059
0
LINE
8
Layer 1
10
8.916657
20
63.708059
11
9.685997
21
63.410270
0
LINE
8
Layer 1
10
9.685997
20
63.410270
11
11.578100
21
63.172480
0
LINE
8
Layer 1
10
11.578100
20
63.172480
11
13.315387
21
63.296503
0
LINE
8
Layer 1
10
13.315387
20
63.296503
11
15.093700
21
63.672480
0
LINE
8
Layer 1
10
15.093700
20
63.672480
11
16.915962
21
64.317016
0
LINE
8
Layer 1
10
16.915962
20
64.317016
11
18.796800
21
65.219380
0
LINE
8
Layer 1
10
18.796800
20
65.219380
11
18.796800
21
61.031900
0
LINE
8
Layer 1
10
18.796800
20
61.031900
11
16.857838
21
60.389803
0
LINE
8
Layer 1
10
16.857838
20
60.389803
11
14.921800
21
59.938100
0
LINE
8
Layer 1
10
14.921800
20
59.938100
11
12.999938
21
59.656850
0
LINE
8
Layer 1
10
12.999938
20
59.656850
11
11.078000
21
59.563100
0
LINE
8
Layer 1
10
11.078000
20
59.563100
11
8.893136
21
59.709585
0
LINE
8
Layer 1
10
8.893136
20
59.709585
11
6.967163
21
60.149044
0
LINE
8
Layer 1
10
6.967163
20
60.149044
11
5.299733
21
60.881480
0
LINE
8
Layer 1
10
5.299733
20
60.881480
11
3.890500
21
61.906900
0
LINE
8
Layer 1
10
3.890500
20
61.906900
11
2.775697
21
63.196755
0
LINE
8
Layer 1
10
2.775697
20
63.196755
11
1.979850
21
64.722813
0
LINE
8
Layer 1
10
1.979850
20
64.722813
11
1.502603
21
66.485439
0
LINE
8
Layer 1
10
1.502603
20
66.485439
11
1.343600
21
68.485000
0
LINE
8
Layer 1
10
1.343600
20
68.485000
11
1.499667
21
70.458241
0
LINE
8
Layer 1
10
1.499667
20
70.458241
11
1.968111
21
72.206650
0
LINE
8
Layer 1
10
1.968111
20
72.206650
11
2.749300
21
73.730959
0
LINE
8
Layer 1
10
2.749300
20
73.730959
11
3.843600
21
75.031900
0
LINE
8
Layer 1
10
3.843600
20
75.031900
11
5.219039
21
76.077816
0
LINE
8
Layer 1
10
5.219039
20
76.077816
11
6.831413
21
76.824875
0
LINE
8
Layer 1
10
6.831413
20
76.824875
11
8.680355
21
77.273097
0
LINE
8
Layer 1
10
8.680355
20
77.273097
11
10.765500
21
77.422500
0
LINE
8
Layer 1
10
10.765500
20
77.422500
11
12.672002
21
77.270950
0
LINE
8
Layer 1
10
12.672002
20
77.270950
11
14.377813
21
76.816541
0
LINE
8
Layer 1
10
14.377813
20
76.816541
11
15.882942
21
76.059637
0
LINE
8
Layer 1
10
15.882942
20
76.059637
11
17.187400
21
75.000600
0
LINE
8
Layer 1
10
17.187400
20
75.000600
11
18.239044
21
73.694009
0
LINE
8
Layer 1
10
18.239044
20
73.694009
11
18.991100
21
72.182725
0
LINE
8
Layer 1
10
18.991100
20
72.182725
11
19.442856
21
70.467103
0
LINE
8
Layer 1
10
19.442856
20
70.467103
11
19.593600
21
68.547500
0
LINE
8
Layer 1
10
19.593600
20
68.547500
11
19.594000
21
68.547500
0
LINE
8
Layer 1
10
14.000200
20
70.360000
11
13.772660
21
71.757937
0
LINE
8
Layer 1
10
13.772660
20
71.757937
11
13.093950
21
72.860000
0
LINE
8
Layer 1
10
13.093950
20
72.860000
11
12.057819
21
73.573864
0
LINE
8
Layer 1
10
12.057819
20
73.573864
11
10.734550
21
73.813120
0
LINE
8
Layer 1
10
10.734550
20
73.813120
11
9.303900
21
73.590463
0
LINE
8
Layer 1
10
9.303900
20
73.590463
11
8.172050
21
72.922500
0
LINE
8
Layer 1
10
8.172050
20
72.922500
11
7.370275
21
71.836085
0
LINE
8
Layer 1
10
7.370275
20
71.836085
11
6.937650
21
70.360000
0
LINE
8
Layer 1
10
6.937650
20
70.360000
11
14.000200
21
70.360000
0
LINE
8
Layer 1
10
10.234000
20
67.656800
11
8.740350
21
67.511294
0
LINE
8
Layer 1
10
8.740350
20
67.511294
11
7.671500
21
67.078680
0
LINE
8
Layer 1
10
7.671500
20
67.078680
11
7.038687
21
66.363353
0
LINE
8
Layer 1
10
7.038687
20
66.363353
11
6.827750
21
65.375580
0
LINE
8
Layer 1
10
6.827750
20
65.375580
11
6.998647
21
64.453205
0
LINE
8
Layer 1
10
6.998647
20
64.453205
11
7.515250
21
63.750580
0
LINE
8
Layer 1
10
7.515250
20
63.750580
11
8.338511
21
63.316500
0
LINE
8
Layer 1
10
8.338511
20
63.316500
11
9.437150
21
63.172460
0
LINE
8
Layer 1
10
9.437150
20
63.172460
11
10.846312
21
63.445415
0
LINE
8
Layer 1
10
10.846312
20
63.445415
11
12.015250
21
64.266260
0
LINE
8
Layer 1
10
12.015250
20
64.266260
11
12.799441
21
65.511390
0
LINE
8
Layer 1
10
12.799441
20
65.511390
11
13.062150
21
67.031860
0
LINE
8
Layer 1
10
13.062150
20
67.031860
11
13.062100
21
67.656900
0
LINE
8
Layer 1
10
13.062100
20
67.656900
11
10.234000
21
67.656800
0
LINE
8
Layer 1
10
18.546500
20
69.703700
11
18.546500
21
60.000600
0
LINE
8
Layer 1
10
18.546500
20
60.000600
11
13.062100
21
60.000600
0
LINE
8
Layer 1
10
13.062100
20
60.000600
11
13.062100
21
62.516200
0
LINE
8
Layer 1
10
13.062100
20
62.516200
11
11.896561
21
61.180300
0
LINE
8
Layer 1
10
11.896561
20
61.180300
11
10.593300
21
60.266200
0
LINE
8
Layer 1
10
10.593300
20
60.266200
11
9.085006
21
59.738859
0
LINE
8
Layer 1
10
9.085006
20
59.738859
11
7.280800
21
59.563080
0
LINE
8
Layer 1
10
7.280800
20
59.563080
11
6.021105
21
59.658416
0
LINE
8
Layer 1
10
6.021105
20
59.658416
11
4.884812
21
59.944909
0
LINE
8
Layer 1
10
4.884812
20
59.944909
11
3.872289
21
60.423287
0
LINE
8
Layer 1
10
3.872289
20
60.423287
11
2.983900
21
61.094280
0
LINE
8
Layer 1
10
2.983900
20
61.094280
11
2.266109
21
61.924949
0
LINE
8
Layer 1
10
2.266109
20
61.924949
11
1.753425
21
62.870630
0
LINE
8
Layer 1
10
1.753425
20
62.870630
11
1.445828
21
63.932036
0
LINE
8
Layer 1
10
1.445828
20
63.932036
11
1.343300
21
65.109880
0
LINE
8
Layer 1
10
1.343300
20
65.109880
11
1.470864
21
66.501549
0
LINE
8
Layer 1
10
1.470864
20
66.501549
11
1.854046
21
67.694355
0
LINE
8
Layer 1
10
1.854046
20
67.694355
11
2.493580
21
68.688674
0
LINE
8
Layer 1
10
2.493580
20
68.688674
11
3.390200
21
69.484880
0
LINE
8
Layer 1
10
3.390200
20
69.484880
11
4.567928
21
70.100107
0
LINE
8
Layer 1
10
4.567928
20
70.100107
11
6.038625
21
70.539543
0
LINE
8
Layer 1
10
6.038625
20
70.539543
11
7.802309
21
70.803197
0
LINE
8
Layer 1
10
7.802309
20
70.803197
11
9.859000
21
70.891080
0
LINE
8
Layer 1
10
9.859000
20
70.891080
11
13.062100
21
70.891100
0
LINE
8
Layer 1
10
13.062100
20
70.891100
11
13.062100
21
71.313000
0
LINE
8
Layer 1
10
13.062100
20
71.313000
11
12.807710
21
72.432630
0
LINE
8
Layer 1
10
12.807710
20
72.432630
11
12.490274
21
72.861518
0
LINE
8
Layer 1
10
12.490274
20
72.861518
11
12.046500
21
73.203600
0
LINE
8
Layer 1
10
12.046500
20
73.203600
11
10.744729
21
73.660634
0
LINE
8
Layer 1
10
10.744729
20
73.660634
11
8.874600
21
73.812980
0
LINE
8
Layer 1
10
8.874600
20
73.812980
11
7.181725
21
73.722649
0
LINE
8
Layer 1
10
7.181725
20
73.722649
11
5.609000
21
73.453600
0
LINE
8
Layer 1
10
5.609000
20
73.453600
11
4.162712
21
73.019516
0
LINE
8
Layer 1
10
4.162712
20
73.019516
11
2.827800
21
72.406700
0
LINE
8
Layer 1
10
2.827800
20
72.406700
11
2.827800
21
76.562900
0
LINE
8
Layer 1
10
2.827800
20
76.562900
11
6.327800
21
77.203520
0
LINE
8
Layer 1
10
6.327800
20
77.203520
11
9.859000
21
77.422270
0
LINE
8
Layer 1
10
9.859000
20
77.422270
11
12.001273
21
77.308805
0
LINE
8
Layer 1
10
12.001273
20
77.308805
11
13.822387
21
76.968656
0
LINE
8
Layer 1
10
13.822387
20
76.968656
11
15.321958
21
76.402189
0
LINE
8
Layer 1
10
15.321958
20
76.402189
11
16.499600
21
75.609770
0
LINE
8
Layer 1
10
16.499600
20
75.609770
11
17.394570
21
74.559492
0
LINE
8
Layer 1
10
17.394570
20
74.559492
11
18.034288
21
73.225020
0
LINE
8
Layer 1
10
18.034288
20
73.225020
11
18.418386
21
71.606373
0
LINE
8
Layer 1
10
18.418386
20
71.606373
11
18.546500
21
69.703570
0
LINE
8
Layer 1
10
18.546500
20
69.703570
11
18.546500
21
69.703700
0
LINE
8
Layer 1
10
8.546900
20
81.844600
11
8.546900
21
77.016500
0
LINE
8
Layer 1
10
8.546900
20
77.016500
11
14.156300
21
77.016500
0
LINE
8
Layer 1
10
14.156300
20
77.016500
11
14.156300
21
73.125900
0
LINE
8
Layer 1
10
14.156300
20
73.125900
11
8.546900
21
73.125900
0
LINE
8
Layer 1
10
8.546900
20
73.125900
11
8.546900
21
65.907100
0
LINE
8
Layer 1
10
8.546900
20
65.907100
11
8.664088
21
64.910524
0
LINE
8
Layer 1
10
8.664088
20
64.910524
11
9.015650
21
64.297700
0
LINE
8
Layer 1
10
9.015650
20
64.297700
11
9.724633
21
63.992035
0
LINE
8
Layer 1
10
9.724633
20
63.992035
11
10.890650
21
63.891450
0
LINE
8
Layer 1
10
10.890650
20
63.891450
11
13.687600
21
63.891400
0
LINE
8
Layer 1
10
13.687600
20
63.891400
11
13.687600
21
60.000800
0
LINE
8
Layer 1
10
13.687600
20
60.000800
11
9.015650
21
60.000800
0
LINE
8
Layer 1
10
9.015650
20
60.000800
11
7.522192
21
60.084419
0
LINE
8
Layer 1
10
7.522192
20
60.084419
11
6.264188
21
60.335766
0
LINE
8
Layer 1
10
6.264188
20
60.335766
11
5.241289
21
60.755581
0
LINE
8
Layer 1
10
5.241289
20
60.755581
11
4.453150
21
61.344600
0
LINE
8
Layer 1
10
4.453150
20
61.344600
11
3.864152
21
62.132752
0
LINE
8
Layer 1
10
3.864152
20
62.132752
11
3.444335
21
63.155649
0
LINE
8
Layer 1
10
3.444335
20
63.155649
11
3.192976
21
64.413646
0
LINE
8
Layer 1
10
3.192976
20
64.413646
11
3.109350
21
65.907100
0
LINE
8
Layer 1
10
3.109350
20
65.907100
11
3.109350
21
73.126000
0
LINE
8
Layer 1
10
3.109350
20
73.126000
11
0.406250
21
73.126000
0
LINE
8
Layer 1
10
0.406250
20
73.126000
11
0.406250
21
77.016500
0
LINE
8
Layer 1
10
0.406250
20
77.016500
11
3.109350
21
77.016500
0
LINE
8
Layer 1
10
3.109350
20
77.016500
11
3.109350
21
81.844700
0
LINE
8
Layer 1
10
3.109350
20
81.844700
11
8.546900
21
81.844600
0
LINE
8
Layer 1
10
14.188000
20
74.516600
11
14.188000
21
83.641600
0
LINE
8
Layer 1
10
14.188000
20
83.641600
11
19.656800
21
83.641600
0
LINE
8
Layer 1
10
19.656800
20
83.641600
11
19.656800
21
60.000600
0
LINE
8
Layer 1
10
19.656800
20
60.000600
11
14.188000
21
60.000600
0
LINE
8
Layer 1
10
14.188000
20
60.000600
11
14.188000
21
62.453700
0
LINE
8
Layer 1
10
14.188000
20
62.453700
11
13.004413
21
61.152912
0
LINE
8
Layer 1
10
13.004413
20
61.152912
11
11.703600
21
60.250600
0
LINE
8
Layer 1
10
11.703600
20
60.250600
11
10.249498
21
59.735464
0
LINE
8
Layer 1
10
10.249498
20
59.735464
11
8.578600
21
59.563100
0
LINE
8
Layer 1
10
8.578600
20
59.563100
11
7.077238
21
59.719167
0
LINE
8
Layer 1
10
7.077238
20
59.719167
11
5.714325
21
60.187611
0
LINE
8
Layer 1
10
5.714325
20
60.187611
11
4.490575
21
60.968800
0
LINE
8
Layer 1
10
4.490575
20
60.968800
11
3.406700
21
62.063100
0
LINE
8
Layer 1
10
3.406700
20
62.063100
11
2.524847
21
63.400520
0
LINE
8
Layer 1
10
2.524847
20
63.400520
11
1.894975
21
64.916638
0
LINE
8
Layer 1
10
1.894975
20
64.916638
11
1.517066
21
66.611461
0
LINE
8
Layer 1
10
1.517066
20
66.611461
11
1.391100
21
68.485000
0
LINE
8
Layer 1
10
1.391100
20
68.485000
11
1.517077
21
70.363719
0
LINE
8
Layer 1
10
1.517077
20
70.363719
11
1.895005
21
72.062625
0
LINE
8
Layer 1
10
1.895005
20
72.062625
11
2.524881
21
73.582094
0
LINE
8
Layer 1
10
2.524881
20
73.582094
11
3.406700
21
74.922500
0
LINE
8
Layer 1
10
3.406700
20
74.922500
11
4.490575
21
76.015167
0
LINE
8
Layer 1
10
4.490575
20
76.015167
11
5.714325
21
76.796537
0
LINE
8
Layer 1
10
5.714325
20
76.796537
11
7.077238
21
77.265889
0
LINE
8
Layer 1
10
7.077238
20
77.265889
11
8.578600
21
77.422500
0
LINE
8
Layer 1
10
8.578600
20
77.422500
11
10.242200
21
77.246717
0
LINE
8
Layer 1
10
10.242200
20
77.246717
11
11.703600
21
76.719380
0
LINE
8
Layer 1
10
11.703600
20
76.719380
11
13.004375
21
75.817053
0
LINE
8
Layer 1
10
13.004375
20
75.817053
11
14.188000
21
74.516280
0
LINE
8
Layer 1
10
14.188000
20
74.516280
11
14.188000
21
74.516600
0
LINE
8
Layer 1
10
10.609900
20
63.516600
11
11.425923
21
63.595702
0
LINE
8
Layer 1
10
11.425923
20
63.595702
11
12.140162
21
63.833005
0
LINE
8
Layer 1
10
12.140162
20
63.833005
11
12.753320
21
64.228506
0
LINE
8
Layer 1
10
12.753320
20
64.228506
11
13.266100
21
64.782200
0
LINE
8
Layer 1
10
13.266100
20
64.782200
11
13.668871
21
65.492643
0
LINE
8
Layer 1
10
13.668871
20
65.492643
11
13.957020
21
66.346635
0
LINE
8
Layer 1
10
13.957020
20
66.346635
11
14.187980
21
68.485300
0
LINE
8
Layer 1
10
14.187980
20
68.485300
11
13.957024
21
70.629838
0
LINE
8
Layer 1
10
13.957024
20
70.629838
11
13.668875
21
71.482370
0
LINE
8
Layer 1
10
13.668875
20
71.482370
11
13.266100
21
72.188400
0
LINE
8
Layer 1
10
13.266100
20
72.188400
11
12.753282
21
72.747839
0
LINE
8
Layer 1
10
12.753282
20
72.747839
11
12.140129
21
73.148335
0
LINE
8
Layer 1
10
12.140129
20
73.148335
11
11.425911
21
73.389163
0
LINE
8
Layer 1
10
11.425911
20
73.389163
11
10.609900
21
73.469600
0
LINE
8
Layer 1
10
10.609900
20
73.469600
11
9.793328
21
73.389156
0
LINE
8
Layer 1
10
9.793328
20
73.389156
11
9.078175
21
73.148316
0
LINE
8
Layer 1
10
9.078175
20
73.148316
11
8.464834
21
72.747818
0
LINE
8
Layer 1
10
8.464834
20
72.747818
11
7.953700
21
72.188400
0
LINE
8
Layer 1
10
7.953700
20
72.188400
11
7.549279
21
71.482349
0
LINE
8
Layer 1
10
7.549279
20
71.482349
11
7.261314
21
70.629819
0
LINE
8
Layer 1
10
7.261314
20
70.629819
11
7.031820
21
68.485300
0
LINE
8
Layer 1
10
7.031820
20
68.485300
11
7.261314
21
66.346613
0
LINE
8
Layer 1
10
7.261314
20
66.346613
11
7.549279
21
65.492617
0
LINE
8
Layer 1
10
7.549279
20
65.492617
11
7.953700
21
64.782200
0
LINE
8
Layer 1
10
7.953700
20
64.782200
11
8.464868
21
64.228493
0
LINE
8
Layer 1
10
8.464868
20
64.228493
11
9.078205
21
63.832994
0
LINE
8
Layer 1
10
9.078205
20
63.832994
11
9.793339
21
63.595698
0
LINE
8
Layer 1
10
9.793339
20
63.595698
11
10.609900
21
63.516600
0
LINE
8
Layer 1
10
10.609900
20
63.516600
11
10.609900
21
63.516600
0
LINE
8
Layer 1
10
11.672000
20
63.516200
11
12.488023
21
63.595302
0
LINE
8
Layer 1
10
12.488023
20
63.595302
11
13.202262
21
63.832605
0
LINE
8
Layer 1
10
13.202262
20
63.832605
11
13.815420
21
64.228106
0
LINE
8
Layer 1
10
13.815420
20
64.228106
11
14.328200
21
64.781800
0
LINE
8
Layer 1
10
14.328200
20
64.781800
11
14.730971
21
65.492243
0
LINE
8
Layer 1
10
14.730971
20
65.492243
11
15.019120
21
66.346235
0
LINE
8
Layer 1
10
15.019120
20
66.346235
11
15.250080
21
68.484900
0
LINE
8
Layer 1
10
15.250080
20
68.484900
11
15.019124
21
70.629438
0
LINE
8
Layer 1
10
15.019124
20
70.629438
11
14.730975
21
71.481970
0
LINE
8
Layer 1
10
14.730975
20
71.481970
11
14.328200
21
72.188000
0
LINE
8
Layer 1
10
14.328200
20
72.188000
11
13.815382
21
72.747439
0
LINE
8
Layer 1
10
13.815382
20
72.747439
11
13.202229
21
73.147935
0
LINE
8
Layer 1
10
13.202229
20
73.147935
11
12.488011
21
73.388763
0
LINE
8
Layer 1
10
12.488011
20
73.388763
11
11.672000
21
73.469200
0
LINE
8
Layer 1
10
11.672000
20
73.469200
11
10.847219
21
73.388756
0
LINE
8
Layer 1
10
10.847219
20
73.388756
11
10.124625
21
73.147916
0
LINE
8
Layer 1
10
10.124625
20
73.147916
11
9.503844
21
72.747418
0
LINE
8
Layer 1
10
9.503844
20
72.747418
11
8.984500
21
72.188000
0
LINE
8
Layer 1
10
8.984500
20
72.188000
11
8.574344
21
71.475360
0
LINE
8
Layer 1
10
8.574344
20
71.475360
11
8.281375
21
70.620636
0
LINE
8
Layer 1
10
8.281375
20
70.620636
11
8.047000
21
68.484900
0
LINE
8
Layer 1
10
8.047000
20
68.484900
11
8.281375
21
66.358438
0
LINE
8
Layer 1
10
8.281375
20
66.358438
11
8.574344
21
65.507067
0
LINE
8
Layer 1
10
8.574344
20
65.507067
11
8.984500
21
64.797400
0
LINE
8
Layer 1
10
8.984500
20
64.797400
11
9.503844
21
64.236311
0
LINE
8
Layer 1
10
9.503844
20
64.236311
11
10.124625
21
63.835999
0
LINE
8
Layer 1
10
10.124625
20
63.835999
11
10.847219
21
63.596087
0
LINE
8
Layer 1
10
10.847219
20
63.596087
11
11.672000
21
63.516200
0
LINE
8
Layer 1
10
11.672000
20
63.516200
11
11.672000
21
63.516200
0
LINE
8
Layer 1
10
8.047000
20
74.516200
11
9.230588
21
75.816987
0
LINE
8
Layer 1
10
9.230588
20
75.816987
11
10.531400
21
76.719300
0
LINE
8
Layer 1
10
10.531400
20
76.719300
11
12.006998
21
77.246641
0
LINE
8
Layer 1
10
12.006998
20
77.246641
11
13.687600
21
77.422420
0
LINE
8
Layer 1
10
13.687600
20
77.422420
11
15.187620
21
77.265803
0
LINE
8
Layer 1
10
15.187620
20
77.265803
11
16.546988
21
76.796443
0
LINE
8
Layer 1
10
16.546988
20
76.796443
11
17.765711
21
76.015070
0
LINE
8
Layer 1
10
17.765711
20
76.015070
11
18.843800
21
74.922420
0
LINE
8
Layer 1
10
18.843800
20
74.922420
11
19.731381
21
73.582014
0
LINE
8
Layer 1
10
19.731381
20
73.582014
11
20.366250
21
72.062545
0
LINE
8
Layer 1
10
20.366250
20
72.062545
11
20.747694
21
70.363639
0
LINE
8
Layer 1
10
20.747694
20
70.363639
11
20.875000
21
68.484920
0
LINE
8
Layer 1
10
20.875000
20
68.484920
11
20.747681
21
66.611381
0
LINE
8
Layer 1
10
20.747681
20
66.611381
11
20.366216
21
64.916558
0
LINE
8
Layer 1
10
20.366216
20
64.916558
11
19.731343
21
63.400440
0
LINE
8
Layer 1
10
19.731343
20
63.400440
11
18.843800
21
62.063020
0
LINE
8
Layer 1
10
18.843800
20
62.063020
11
17.765655
21
60.968708
0
LINE
8
Layer 1
10
17.765655
20
60.968708
11
16.546913
21
60.187520
0
LINE
8
Layer 1
10
16.546913
20
60.187520
11
15.187564
21
59.719083
0
LINE
8
Layer 1
10
15.187564
20
59.719083
11
13.687600
21
59.563020
0
LINE
8
Layer 1
10
13.687600
20
59.563020
11
12.006938
21
59.738803
0
LINE
8
Layer 1
10
12.006938
20
59.738803
11
10.531400
21
60.266140
0
LINE
8
Layer 1
10
10.531400
20
60.266140
11
9.230606
21
61.163580
0
LINE
8
Layer 1
10
9.230606
20
61.163580
11
8.047000
21
62.453600
0
LINE
8
Layer 1
10
8.047000
20
62.453600
11
8.047000
21
60.000500
0
LINE
8
Layer 1
10
8.047000
20
60.000500
11
2.609500
21
60.000500
0
LINE
8
Layer 1
10
2.609500
20
60.000500
11
2.609500
21
83.641500
0
LINE
8
Layer 1
10
2.609500
20
83.641500
11
8.047000
21
83.641500
0
LINE
8
Layer 1
10
8.047000
20
83.641500
11
8.047000
21
74.516200
0
LINE
8
Layer 1
10
0.375000
20
77.016600
11
5.812500
21
77.016600
0
LINE
8
Layer 1
10
5.812500
20
77.016600
11
10.390600
21
65.469600
0
LINE
8
Layer 1
10
10.390600
20
65.469600
11
14.281200
21
77.016600
0
LINE
8
Layer 1
10
14.281200
20
77.016600
11
19.718700
21
77.016600
0
LINE
8
Layer 1
10
19.718700
20
77.016600
11
12.562500
21
58.391600
0
LINE
8
Layer 1
10
12.562500
20
58.391600
11
11.394063
21
55.978013
0
LINE
8
Layer 1
10
11.394063
20
55.978013
11
10.742630
21
55.092917
0
LINE
8
Layer 1
10
10.742630
20
55.092917
11
10.046900
21
54.422800
0
LINE
8
Layer 1
10
10.046900
20
54.422800
11
9.270403
21
53.924884
0
LINE
8
Layer 1
10
9.270403
20
53.924884
11
8.381847
21
53.568325
0
LINE
8
Layer 1
10
8.381847
20
53.568325
11
7.380518
21
53.353853
0
LINE
8
Layer 1
10
7.380518
20
53.353853
11
6.265700
21
53.282200
0
LINE
8
Layer 1
10
6.265700
20
53.282200
11
3.109500
21
53.282200
0
LINE
8
Layer 1
10
3.109500
20
53.282200
11
3.109500
21
56.860300
0
LINE
8
Layer 1
10
3.109500
20
56.860300
11
4.812600
21
56.860300
0
LINE
8
Layer 1
10
4.812600
20
56.860300
11
6.010855
21
56.970653
0
LINE
8
Layer 1
10
6.010855
20
56.970653
11
6.828200
21
57.297800
0
LINE
8
Layer 1
10
6.828200
20
57.297800
11
7.384841
21
57.912550
0
LINE
8
Layer 1
10
7.384841
20
57.912550
11
7.812580
21
58.875900
0
LINE
8
Layer 1
10
7.812580
20
58.875900
11
7.953200
21
59.344700
0
LINE
8
Layer 1
10
7.953200
20
59.344700
11
0.375000
21
77.016600
0
LINE
8
Layer 1
10
2.609400
20
77.016600
11
8.046900
21
77.016600
0
LINE
8
Layer 1
10
8.046900
20
77.016600
11
8.046900
21
60.000600
0
LINE
8
Layer 1
10
8.046900
20
60.000600
11
2.609400
21
60.000600
0
LINE
8
Layer 1
10
2.609400
20
60.000600
11
2.609400
21
77.016600
0
LINE
8
Layer 1
10
2.609400
20
83.641600
11
8.046900
21
83.641600
0
LINE
8
Layer 1
10
8.046900
20
83.641600
11
8.046900
21
79.204100
0
LINE
8
Layer 1
10
8.046900
20
79.204100
11
2.609400
21
79.204100
0
LINE
8
Layer 1
10
2.609400
20
79.204100
11
2.609400
21
83.641600
0
LINE
8
Layer 1
10
16.359000
20
76.484600
11
16.359000
21
72.047100
0
LINE
8
Layer 1
10
16.359000
20
72.047100
11
15.244729
21
72.709208
0
LINE
8
Layer 1
10
15.244729
20
72.709208
11
14.124600
21
73.172100
0
LINE
8
Layer 1
10
14.124600
20
73.172100
11
12.990329
21
73.441145
0
LINE
8
Layer 1
10
12.990329
20
73.441145
11
11.812100
21
73.531480
0
LINE
8
Layer 1
10
11.812100
20
73.531480
11
10.739905
21
73.448107
0
LINE
8
Layer 1
10
10.739905
20
73.448107
11
9.791113
21
73.198476
0
LINE
8
Layer 1
10
9.791113
20
73.198476
11
8.966089
21
72.783323
0
LINE
8
Layer 1
10
8.966089
20
72.783323
11
8.265200
21
72.203380
0
LINE
8
Layer 1
10
8.265200
20
72.203380
11
7.711493
21
71.472361
0
LINE
8
Layer 1
10
7.711493
20
71.472361
11
7.315994
21
70.609135
0
LINE
8
Layer 1
10
7.315994
20
70.609135
11
7.078698
21
69.613332
0
LINE
8
Layer 1
10
7.078698
20
69.613332
11
6.999600
21
68.484580
0
LINE
8
Layer 1
10
6.999600
20
68.484580
11
7.078702
21
67.361063
0
LINE
8
Layer 1
10
7.078702
20
67.361063
11
7.316005
21
66.369367
0
LINE
8
Layer 1
10
7.316005
20
66.369367
11
7.711506
21
65.509503
0
LINE
8
Layer 1
10
7.711506
20
65.509503
11
8.265200
21
64.781480
0
LINE
8
Layer 1
10
8.265200
20
64.781480
11
8.966072
21
64.199879
0
LINE
8
Layer 1
10
8.966072
20
64.199879
11
9.791097
21
63.784910
0
LINE
8
Layer 1
10
9.791097
20
63.784910
11
10.739899
21
63.536201
0
LINE
8
Layer 1
10
10.739899
20
63.536201
11
11.812100
21
63.453380
0
LINE
8
Layer 1
10
11.812100
20
63.453380
11
13.056748
21
63.547130
0
LINE
8
Layer 1
10
13.056748
20
63.547130
11
14.234000
21
63.828380
0
LINE
8
Layer 1
10
14.234000
20
63.828380
11
15.341924
21
64.297130
0
LINE
8
Layer 1
10
15.341924
20
64.297130
11
16.359000
21
64.953380
0
LINE
8
Layer 1
10
16.359000
20
64.953380
11
16.359000
21
60.500300
0
LINE
8
Layer 1
10
16.359000
20
60.500300
11
13.765200
21
59.797180
0
LINE
8
Layer 1
10
13.765200
20
59.797180
11
11.140200
21
59.562800
0
LINE
8
Layer 1
10
11.140200
20
59.562800
11
8.960577
21
59.710079
0
LINE
8
Layer 1
10
8.960577
20
59.710079
11
7.033263
21
60.152160
0
LINE
8
Layer 1
10
7.033263
20
60.152160
11
5.358642
21
60.889411
0
LINE
8
Layer 1
10
5.358642
20
60.889411
11
3.937100
21
61.922200
0
LINE
8
Layer 1
10
3.937100
20
61.922200
11
2.801764
21
63.215650
0
LINE
8
Layer 1
10
2.801764
20
63.215650
11
1.991263
21
64.740550
0
LINE
8
Layer 1
10
1.991263
20
64.740550
11
1.505230
21
66.496900
0
LINE
8
Layer 1
10
1.505230
20
66.496900
11
1.343300
21
68.484700
0
LINE
8
Layer 1
10
1.343300
20
68.484700
11
1.505227
21
70.477680
0
LINE
8
Layer 1
10
1.505227
20
70.477680
11
1.991255
21
72.238112
0
LINE
8
Layer 1
10
1.991255
20
72.238112
11
2.801756
21
73.766364
0
LINE
8
Layer 1
10
2.801756
20
73.766364
11
3.937100
21
75.062800
0
LINE
8
Layer 1
10
3.937100
20
75.062800
11
5.358684
21
76.093927
0
LINE
8
Layer 1
10
5.358684
20
76.093927
11
7.033300
21
76.831363
0
LINE
8
Layer 1
10
7.033300
20
76.831363
11
8.960591
21
77.274367
0
LINE
8
Layer 1
10
8.960591
20
77.274367
11
11.140200
21
77.422200
0
LINE
8
Layer 1
10
11.140200
20
77.422200
11
13.765200
21
77.187820
0
LINE
8
Layer 1
10
13.765200
20
77.187820
11
16.359000
21
76.484700
0
LINE
8
Layer 1
10
16.359000
20
76.484700
11
16.359000
21
76.484600
0
LINE
8
Layer 1
10
10.703000
20
73.531600
11
9.856388
21
73.450362
0
LINE
8
Layer 1
10
9.856388
20
73.450362
11
9.115600
21
73.206891
0
LINE
8
Layer 1
10
9.115600
20
73.206891
11
8.481012
21
72.801550
0
LINE
8
Layer 1
10
8.481012
20
72.801550
11
7.953000
21
72.234700
0
LINE
8
Layer 1
10
7.953000
20
72.234700
11
7.535459
21
71.512529
0
LINE
8
Layer 1
10
7.535459
20
71.512529
11
7.237670
21
70.646804
0
LINE
8
Layer 1
10
7.237670
20
70.646804
11
6.999880
21
68.484700
0
LINE
8
Layer 1
10
6.999880
20
68.484700
11
7.237674
21
66.331862
0
LINE
8
Layer 1
10
7.237674
20
66.331862
11
7.535463
21
65.469489
0
LINE
8
Layer 1
10
7.535463
20
65.469489
11
7.953000
21
64.750300
0
LINE
8
Layer 1
10
7.953000
20
64.750300
11
8.481017
21
64.181814
0
LINE
8
Layer 1
10
8.481017
20
64.181814
11
9.115604
21
63.776654
0
LINE
8
Layer 1
10
9.115604
20
63.776654
11
9.856389
21
63.534092
0
LINE
8
Layer 1
10
9.856389
20
63.534092
11
10.703000
21
63.453400
0
LINE
8
Layer 1
10
10.703000
20
63.453400
11
11.540898
21
63.534089
0
LINE
8
Layer 1
10
11.540898
20
63.534089
11
12.273338
21
63.776646
0
LINE
8
Layer 1
10
12.273338
20
63.776646
11
12.900308
21
64.181805
0
LINE
8
Layer 1
10
12.900308
20
64.181805
11
13.421800
21
64.750300
0
LINE
8
Layer 1
10
13.421800
20
64.750300
11
13.837692
21
65.469481
0
LINE
8
Layer 1
10
13.837692
20
65.469481
11
14.135664
21
66.331855
0
LINE
8
Layer 1
10
14.135664
20
66.331855
11
14.374920
21
68.484700
0
LINE
8
Layer 1
10
14.374920
20
68.484700
11
14.135664
21
70.646800
0
LINE
8
Layer 1
10
14.135664
20
70.646800
11
13.837692
21
71.512525
0
LINE
8
Layer 1
10
13.837692
20
71.512525
11
13.421800
21
72.234700
0
LINE
8
Layer 1
10
13.421800
20
72.234700
11
12.900322
21
72.801537
0
LINE
8
Layer 1
10
12.900322
20
72.801537
11
12.273375
21
73.206880
0
LINE
8
Layer 1
10
12.273375
20
73.206880
11
11.540941
21
73.450358
0
LINE
8
Layer 1
10
11.540941
20
73.450358
11
10.703000
21
73.531600
0
LINE
8
Layer 1
10
10.703000
20
73.531600
11
10.703000
21
73.531600
0
LINE
8
Layer 1
10
10.703000
20
77.422200
11
12.777283
21
77.273579
0
LINE
8
Layer 1
10
12.777283
20
77.273579
11
14.611687
21
76.827961
0
LINE
8
Layer 1
10
14.611687
20
76.827961
11
16.206598
21
76.085713
0
LINE
8
Layer 1
10
16.206598
20
76.085713
11
17.562400
21
75.047200
0
LINE
8
Layer 1
10
17.562400
20
75.047200
11
18.641923
21
73.751556
0
LINE
8
Layer 1
10
18.641923
20
73.751556
11
19.413488
21
72.225925
0
LINE
8
Layer 1
10
19.413488
20
72.225925
11
19.876708
21
70.470306
0
LINE
8
Layer 1
10
19.876708
20
70.470306
11
20.031200
21
68.484700
0
LINE
8
Layer 1
10
20.031200
20
68.484700
11
19.876719
21
66.503481
0
LINE
8
Layer 1
10
19.876719
20
66.503481
11
19.413517
21
64.749325
0
LINE
8
Layer 1
10
19.413517
20
64.749325
11
18.641957
21
63.222231
0
LINE
8
Layer 1
10
18.641957
20
63.222231
11
17.562400
21
61.922200
0
LINE
8
Layer 1
10
17.562400
20
61.922200
11
16.206641
21
60.889428
0
LINE
8
Layer 1
10
16.206641
20
60.889428
11
14.611725
21
60.152175
0
LINE
8
Layer 1
10
14.611725
20
60.152175
11
12.777297
21
59.710084
0
LINE
8
Layer 1
10
12.777297
20
59.710084
11
10.703000
21
59.562800
0
LINE
8
Layer 1
10
10.703000
20
59.562800
11
8.619989
21
59.710079
0
LINE
8
Layer 1
10
8.619989
20
59.710079
11
6.777212
21
60.152160
0
LINE
8
Layer 1
10
6.777212
20
60.152160
11
5.174680
21
60.889411
0
LINE
8
Layer 1
10
5.174680
20
60.889411
11
3.812400
21
61.922200
0
LINE
8
Layer 1
10
3.812400
20
61.922200
11
2.731231
21
63.222231
0
LINE
8
Layer 1
10
2.731231
20
63.222231
11
1.959850
21
64.749325
0
LINE
8
Layer 1
10
1.959850
20
64.749325
11
1.497544
21
66.503481
0
LINE
8
Layer 1
10
1.497544
20
66.503481
11
1.343600
21
68.484700
0
LINE
8
Layer 1
10
1.343600
20
68.484700
11
1.497531
21
70.470306
0
LINE
8
Layer 1
10
1.497531
20
70.470306
11
1.959816
21
72.225925
0
LINE
8
Layer 1
10
1.959816
20
72.225925
11
2.731193
21
73.751556
0
LINE
8
Layer 1
10
2.731193
20
73.751556
11
3.812400
21
75.047200
0
LINE
8
Layer 1
10
3.812400
20
75.047200
11
5.174680
21
76.085700
0
LINE
8
Layer 1
10
5.174680
20
76.085700
11
6.777212
21
76.827950
0
LINE
8
Layer 1
10
6.777212
20
76.827950
11
8.619989
21
77.273575
0
LINE
8
Layer 1
10
8.619989
20
77.273575
11
10.703000
21
77.422200
0
LINE
8
Layer 1
10
10.703000
20
77.422200
11
10.703000
21
77.422200
0
LINE
8
Layer 1
10
19.719000
20
70.359600
11
19.719000
21
60.000600
0
LINE
8
Layer 1
10
19.719000
20
60.000600
11
14.250200
21
60.000600
0
LINE
8
Layer 1
10
14.250200
20
60.000600
11
14.250200
21
67.922500
0
LINE
8
Layer 1
10
14.250200
20
67.922500
11
14.140820
21
70.953700
0
LINE
8
Layer 1
10
14.140820
20
70.953700
11
13.812700
21
72.203700
0
LINE
8
Layer 1
10
13.812700
20
72.203700
11
13.429399
21
72.674891
0
LINE
8
Layer 1
10
13.429399
20
72.674891
11
12.937700
21
73.031820
0
LINE
8
Layer 1
10
12.937700
20
73.031820
11
12.354201
21
73.253501
0
LINE
8
Layer 1
10
12.354201
20
73.253501
11
11.703300
21
73.328700
0
LINE
8
Layer 1
10
11.703300
20
73.328700
11
10.896125
21
73.245327
0
LINE
8
Layer 1
10
10.896125
20
73.245327
11
10.179400
21
72.995696
0
LINE
8
Layer 1
10
10.179400
20
72.995696
11
9.552750
21
72.580543
0
LINE
8
Layer 1
10
9.552750
20
72.580543
11
9.015800
21
72.000600
0
LINE
8
Layer 1
10
9.015800
20
72.000600
11
8.590872
21
71.281489
0
LINE
8
Layer 1
10
8.590872
20
71.281489
11
8.288260
21
70.437138
0
LINE
8
Layer 1
10
8.288260
20
70.437138
11
8.047050
21
68.375600
0
LINE
8
Layer 1
10
8.047050
20
68.375600
11
8.047050
21
60.000600
0
LINE
8
Layer 1
10
8.047050
20
60.000600
11
2.609550
21
60.000600
0
LINE
8
Layer 1
10
2.609550
20
60.000600
11
2.609550
21
77.016600
0
LINE
8
Layer 1
10
2.609550
20
77.016600
11
8.047050
21
77.016600
0
LINE
8
Layer 1
10
8.047050
20
77.016600
11
8.047050
21
74.516600
0
LINE
8
Layer 1
10
8.047050
20
74.516600
11
9.315116
21
75.817387
0
LINE
8
Layer 1
10
9.315116
20
75.817387
11
10.656450
21
76.719700
0
LINE
8
Layer 1
10
10.656450
20
76.719700
11
12.115917
21
77.247041
0
LINE
8
Layer 1
10
12.115917
20
77.247041
11
13.718950
21
77.422820
0
LINE
8
Layer 1
10
13.718950
20
77.422820
11
15.098880
21
77.309355
0
LINE
8
Layer 1
10
15.098880
20
77.309355
11
16.303413
21
76.969206
0
LINE
8
Layer 1
10
16.303413
20
76.969206
11
17.332914
21
76.402739
0
LINE
8
Layer 1
10
17.332914
20
76.402739
11
18.187750
21
75.610320
0
LINE
8
Layer 1
10
18.187750
20
75.610320
11
18.857102
21
74.607645
0
LINE
8
Layer 1
10
18.857102
20
74.607645
11
19.335663
21
73.398420
0
LINE
8
Layer 1
10
19.335663
20
73.398420
11
19.623067
21
71.982645
0
LINE
8
Layer 1
10
19.623067
20
71.982645
11
19.718950
21
70.360320
0
LINE
8
Layer 1
10
19.718950
20
70.360320
11
19.719000
21
70.359600
0
LINE
8
Layer 1
10
19.719000
20
70.359600
11
19.719000
21
60.000600
0
LINE
8
Layer 1
10
19.719000
20
60.000600
11
14.250200
21
60.000600
0
LINE
8
Layer 1
10
14.250200
20
60.000600
11
14.250200
21
67.906800
0
LINE
8
Layer 1
10
14.250200
20
67.906800
11
14.140820
21
70.953700
0
LINE
8
Layer 1
10
14.140820
20
70.953700
11
13.812700
21
72.203700
0
LINE
8
Layer 1
10
13.812700
20
72.203700
11
13.429399
21
72.674891
0
LINE
8
Layer 1
10
13.429399
20
72.674891
11
12.937700
21
73.031820
0
LINE
8
Layer 1
10
12.937700
20
73.031820
11
12.354201
21
73.253501
0
LINE
8
Layer 1
10
12.354201
20
73.253501
11
11.703300
21
73.328700
0
LINE
8
Layer 1
10
11.703300
20
73.328700
11
10.896125
21
73.245327
0
LINE
8
Layer 1
10
10.896125
20
73.245327
11
10.179400
21
72.995696
0
LINE
8
Layer 1
10
10.179400
20
72.995696
11
9.552750
21
72.580543
0
LINE
8
Layer 1
10
9.552750
20
72.580543
11
9.015800
21
72.000600
0
LINE
8
Layer 1
10
9.015800
20
72.000600
11
8.590872
21
71.281489
0
LINE
8
Layer 1
10
8.590872
20
71.281489
11
8.288260
21
70.437138
0
LINE
8
Layer 1
10
8.288260
20
70.437138
11
8.047050
21
68.375600
0
LINE
8
Layer 1
10
8.047050
20
68.375600
11
8.047050
21
60.000600
0
LINE
8
Layer 1
10
8.047050
20
60.000600
11
2.609550
21
60.000600
0
LINE
8
Layer 1
10
2.609550
20
60.000600
11
2.609550
21
83.641600
0
LINE
8
Layer 1
10
2.609550
20
83.641600
11
8.047050
21
83.641600
0
LINE
8
Layer 1
10
8.047050
20
83.641600
11
8.047050
21
74.516600
0
LINE
8
Layer 1
10
8.047050
20
74.516600
11
9.315116
21
75.817387
0
LINE
8
Layer 1
10
9.315116
20
75.817387
11
10.656450
21
76.719700
0
LINE
8
Layer 1
10
10.656450
20
76.719700
11
12.115917
21
77.247041
0
LINE
8
Layer 1
10
12.115917
20
77.247041
11
13.718950
21
77.422820
0
LINE
8
Layer 1
10
13.718950
20
77.422820
11
15.098880
21
77.309355
0
LINE
8
Layer 1
10
15.098880
20
77.309355
11
16.303413
21
76.969206
0
LINE
8
Layer 1
10
16.303413
20
76.969206
11
17.332914
21
76.402739
0
LINE
8
Layer 1
10
17.332914
20
76.402739
11
18.187750
21
75.610320
0
LINE
8
Layer 1
10
18.187750
20
75.610320
11
18.857102
21
74.607645
0
LINE
8
Layer 1
10
18.857102
20
74.607645
11
19.335663
21
73.398420
0
LINE
8
Layer 1
10
19.335663
20
73.398420
11
19.623067
21
71.982645
0
LINE
8
Layer 1
10
19.623067
20
71.982645
11
19.718950
21
70.360320
0
LINE
8
Layer 1
10
19.718950
20
70.360320
11
19.719000
21
70.359600
0
LINE
8
Layer 1
10
15.906000
20
76.484600
11
15.906000
21
72.344000
0
LINE
8
Layer 1
10
15.906000
20
72.344000
11
14.186250
21
72.983165
0
LINE
8
Layer 1
10
14.186250
20
72.983165
11
12.531000
21
73.437800
0
LINE
8
Layer 1
10
12.531000
20
73.437800
11
10.951412
21
73.719050
0
LINE
8
Layer 1
10
10.951412
20
73.719050
11
9.468500
21
73.812800
0
LINE
8
Layer 1
10
9.468500
20
73.812800
11
8.108625
21
73.714169
0
LINE
8
Layer 1
10
8.108625
20
73.714169
11
7.156000
21
73.422180
0
LINE
8
Layer 1
10
7.156000
20
73.422180
11
6.593500
21
72.929504
0
LINE
8
Layer 1
10
6.593500
20
72.929504
11
6.406000
21
72.234680
0
LINE
8
Layer 1
10
6.406000
20
72.234680
11
6.546625
21
71.652165
0
LINE
8
Layer 1
10
6.546625
20
71.652165
11
6.968500
21
71.219080
0
LINE
8
Layer 1
10
6.968500
20
71.219080
11
7.767816
21
70.917324
0
LINE
8
Layer 1
10
7.767816
20
70.917324
11
9.015400
21
70.703460
0
LINE
8
Layer 1
10
9.015400
20
70.703460
11
9.984150
21
70.578460
0
LINE
8
Layer 1
10
9.984150
20
70.578460
11
11.898797
21
70.269316
0
LINE
8
Layer 1
10
11.898797
20
70.269316
11
13.471425
21
69.874846
0
LINE
8
Layer 1
10
13.471425
20
69.874846
11
14.702766
21
69.394683
0
LINE
8
Layer 1
10
14.702766
20
69.394683
11
15.593550
21
68.828460
0
LINE
8
Layer 1
10
15.593550
20
68.828460
11
16.229288
21
68.132787
0
LINE
8
Layer 1
10
16.229288
20
68.132787
11
16.683381
21
67.264997
0
LINE
8
Layer 1
10
16.683381
20
67.264997
11
16.955834
21
66.225815
0
LINE
8
Layer 1
10
16.955834
20
66.225815
11
17.046650
21
65.015960
0
LINE
8
Layer 1
10
17.046650
20
65.015960
11
16.920673
21
63.740201
0
LINE
8
Layer 1
10
16.920673
20
63.740201
11
16.542745
21
62.632160
0
LINE
8
Layer 1
10
16.542745
20
62.632160
11
15.912869
21
61.692569
0
LINE
8
Layer 1
10
15.912869
20
61.692569
11
15.031050
21
60.922160
0
LINE
8
Layer 1
10
15.031050
20
60.922160
11
13.905947
21
60.327430
0
LINE
8
Layer 1
10
13.905947
20
60.327430
11
12.534000
21
59.902616
0
LINE
8
Layer 1
10
12.534000
20
59.902616
11
10.914478
21
59.647725
0
LINE
8
Layer 1
10
10.914478
20
59.647725
11
9.046650
21
59.562760
0
LINE
8
Layer 1
10
9.046650
20
59.562760
11
5.562250
21
59.828380
0
LINE
8
Layer 1
10
5.562250
20
59.828380
11
1.874750
21
60.625260
0
LINE
8
Layer 1
10
1.874750
20
60.625260
11
1.874750
21
64.750300
0
LINE
8
Layer 1
10
1.874750
20
64.750300
11
3.518287
21
64.061334
0
LINE
8
Layer 1
10
3.518287
20
64.061334
11
5.202850
21
63.562800
0
LINE
8
Layer 1
10
5.202850
20
63.562800
11
6.919662
21
63.269345
0
LINE
8
Layer 1
10
6.919662
20
63.269345
11
8.671650
21
63.172180
0
LINE
8
Layer 1
10
8.671650
20
63.172180
11
10.066187
21
63.281066
0
LINE
8
Layer 1
10
10.066187
20
63.281066
11
11.062250
21
63.609680
0
LINE
8
Layer 1
10
11.062250
20
63.609680
11
11.670647
21
64.163390
0
LINE
8
Layer 1
10
11.670647
20
64.163390
11
11.874750
21
64.922180
0
LINE
8
Layer 1
10
11.874750
20
64.922180
11
11.734125
21
65.557920
0
LINE
8
Layer 1
10
11.734125
20
65.557920
11
11.312250
21
66.000280
0
LINE
8
Layer 1
10
11.312250
20
66.000280
11
10.486066
21
66.319615
0
LINE
8
Layer 1
10
10.486066
20
66.319615
11
9.109150
21
66.562780
0
LINE
8
Layer 1
10
9.109150
20
66.562780
11
8.156030
21
66.687780
0
LINE
8
Layer 1
10
8.156030
20
66.687780
11
5.068605
21
67.331828
0
LINE
8
Layer 1
10
5.068605
20
67.331828
11
3.930108
21
67.797961
0
LINE
8
Layer 1
10
3.930108
20
67.797961
11
3.062230
21
68.359680
0
LINE
8
Layer 1
10
3.062230
20
68.359680
11
2.426492
21
69.055478
0
LINE
8
Layer 1
10
2.426492
20
69.055478
11
1.972399
21
69.912409
0
LINE
8
Layer 1
10
1.972399
20
69.912409
11
1.699946
21
70.930475
0
LINE
8
Layer 1
10
1.699946
20
70.930475
11
1.609130
21
72.109680
0
LINE
8
Layer 1
10
1.609130
20
72.109680
11
1.724182
21
73.372443
0
LINE
8
Layer 1
10
1.724182
20
73.372443
11
2.069585
21
74.459780
0
LINE
8
Layer 1
10
2.069585
20
74.459780
11
2.645711
21
75.372067
0
LINE
8
Layer 1
10
2.645711
20
75.372067
11
3.452930
21
76.109680
0
LINE
8
Layer 1
10
3.452930
20
76.109680
11
4.504755
21
76.683899
0
LINE
8
Layer 1
10
4.504755
20
76.683899
11
5.803030
21
77.094055
0
LINE
8
Layer 1
10
5.803030
20
77.094055
11
7.348130
21
77.340149
0
LINE
8
Layer 1
10
7.348130
20
77.340149
11
9.140430
21
77.422180
0
LINE
8
Layer 1
10
9.140430
20
77.422180
11
12.296630
21
77.187800
0
LINE
8
Layer 1
10
12.296630
20
77.187800
11
15.906030
21
76.484680
0
LINE
8
Layer 1
10
15.906030
20
76.484680
11
15.906000
21
76.484600
0
LINE
8
Layer 1
10
13.812000
20
83.641600
11
13.812000
21
80.063500
0
LINE
8
Layer 1
10
13.812000
20
80.063500
11
10.796400
21
80.063500
0
LINE
8
Layer 1
10
10.796400
20
80.063500
11
9.814460
21
79.958033
0
LINE
8
Layer 1
10
9.814460
20
79.958033
11
9.187000
21
79.641620
0
LINE
8
Layer 1
10
9.187000
20
79.641620
11
8.846181
21
79.078143
0
LINE
8
Layer 1
10
8.846181
20
79.078143
11
8.733880
21
78.204120
0
LINE
8
Layer 1
10
8.733880
20
78.204120
11
8.733880
21
77.016600
0
LINE
8
Layer 1
10
8.733880
20
77.016600
11
13.374500
21
77.016600
0
LINE
8
Layer 1
10
13.374500
20
77.016600
11
13.374500
21
73.126000
0
LINE
8
Layer 1
10
13.374500
20
73.126000
11
8.733880
21
73.126000
0
LINE
8
Layer 1
10
8.733880
20
73.126000
11
8.733880
21
60.001000
0
LINE
8
Layer 1
10
8.733880
20
60.001000
11
3.296380
21
60.001000
0
LINE
8
Layer 1
10
3.296380
20
60.001000
11
3.296380
21
73.126000
0
LINE
8
Layer 1
10
3.296380
20
73.126000
11
0.593280
21
73.126000
0
LINE
8
Layer 1
10
0.593280
20
73.126000
11
0.593280
21
77.016600
0
LINE
8
Layer 1
10
0.593280
20
77.016600
11
3.296380
21
77.016600
0
LINE
8
Layer 1
10
3.296380
20
77.016600
11
3.296380
21
78.204100
0
LINE
8
Layer 1
10
3.296380
20
78.204100
11
3.393059
21
79.502645
0
LINE
8
Layer 1
10
3.393059
20
79.502645
11
3.683100
21
80.620638
0
LINE
8
Layer 1
10
3.683100
20
80.620638
11
4.166506
21
81.557711
0
LINE
8
Layer 1
10
4.166506
20
81.557711
11
4.843280
21
82.313500
0
LINE
8
Layer 1
10
4.843280
20
82.313500
11
5.722958
21
82.893451
0
LINE
8
Layer 1
10
5.722958
20
82.893451
11
6.815430
21
83.308604
0
LINE
8
Layer 1
10
6.815430
20
83.308604
11
8.121052
21
83.558230
0
LINE
8
Layer 1
10
8.121052
20
83.558230
11
9.640180
21
83.641600
0
LINE
8
Layer 1
10
9.640180
20
83.641600
11
13.812000
21
83.641600
0
LINE
8
Layer 1
10
18.375000
20
74.188600
11
19.503413
21
75.577775
0
LINE
8
Layer 1
10
19.503413
20
75.577775
11
20.828100
21
76.594800
0
LINE
8
Layer 1
10
20.828100
20
76.594800
11
22.318829
21
77.215402
0
LINE
8
Layer 1
10
22.318829
20
77.215402
11
23.953100
21
77.422920
0
LINE
8
Layer 1
10
23.953100
20
77.422920
11
25.333030
21
77.309455
0
LINE
8
Layer 1
10
25.333030
20
77.309455
11
26.537562
21
76.969306
0
LINE
8
Layer 1
10
26.537562
20
76.969306
11
27.567064
21
76.402839
0
LINE
8
Layer 1
10
27.567064
20
76.402839
11
28.421900
21
75.610420
0
LINE
8
Layer 1
10
28.421900
20
75.610420
11
29.091252
21
74.607745
0
LINE
8
Layer 1
10
29.091252
20
74.607745
11
29.569813
21
73.398520
0
LINE
8
Layer 1
10
29.569813
20
73.398520
11
29.857217
21
71.982745
0
LINE
8
Layer 1
10
29.857217
20
71.982745
11
29.953100
21
70.360420
0
LINE
8
Layer 1
10
29.953100
20
70.360420
11
29.953100
21
60.001400
0
LINE
8
Layer 1
10
29.953100
20
60.001400
11
24.484300
21
60.001400
0
LINE
8
Layer 1
10
24.484300
20
60.001400
11
24.484300
21
68.876400
0
LINE
8
Layer 1
10
24.484300
20
68.876400
11
24.499930
21
69.282650
0
LINE
8
Layer 1
10
24.499930
20
69.282650
11
24.515560
21
69.892030
0
LINE
8
Layer 1
10
24.515560
20
69.892030
11
24.381770
21
71.453530
0
LINE
8
Layer 1
10
24.381770
20
71.453530
11
23.984310
21
72.517030
0
LINE
8
Layer 1
10
23.984310
20
72.517030
11
23.287525
21
73.125428
0
LINE
8
Layer 1
10
23.287525
20
73.125428
11
22.265510
21
73.329530
0
LINE
8
Layer 1
10
22.265510
20
73.329530
11
21.536043
21
73.249086
0
LINE
8
Layer 1
10
21.536043
20
73.249086
11
20.894448
21
73.008246
0
LINE
8
Layer 1
10
20.894448
20
73.008246
11
20.340733
21
72.607748
0
LINE
8
Layer 1
10
20.340733
20
72.607748
11
19.874910
21
72.048330
0
LINE
8
Layer 1
10
19.874910
20
72.048330
11
19.233796
21
70.484379
0
LINE
8
Layer 1
10
19.233796
20
70.484379
11
18.999910
21
68.360830
0
LINE
8
Layer 1
10
18.999910
20
68.360830
11
18.999900
21
60.001400
0
LINE
8
Layer 1
10
18.999900
20
60.001400
11
13.531100
21
60.001400
0
LINE
8
Layer 1
10
13.531100
20
60.001400
11
13.531100
21
68.876400
0
LINE
8
Layer 1
10
13.531100
20
68.876400
11
13.409030
21
71.199163
0
LINE
8
Layer 1
10
13.409030
20
71.199163
11
13.046720
21
72.517000
0
LINE
8
Layer 1
10
13.046720
20
72.517000
11
12.369960
21
73.125398
0
LINE
8
Layer 1
10
12.369960
20
73.125398
11
11.312320
21
73.329500
0
LINE
8
Layer 1
10
11.312320
20
73.329500
11
10.574081
21
73.248262
0
LINE
8
Layer 1
10
10.574081
20
73.248262
11
9.924108
21
73.004791
0
LINE
8
Layer 1
10
9.924108
20
73.004791
11
9.362765
21
72.599450
0
LINE
8
Layer 1
10
9.362765
20
72.599450
11
8.890420
21
72.032600
0
LINE
8
Layer 1
10
8.890420
20
72.032600
11
8.257607
21
70.476949
0
LINE
8
Layer 1
10
8.257607
20
70.476949
11
8.046670
21
68.376400
0
LINE
8
Layer 1
10
8.046670
20
68.376400
11
8.046680
21
60.001400
0
LINE
8
Layer 1
10
8.046680
20
60.001400
11
2.577880
21
60.001400
0
LINE
8
Layer 1
10
2.577880
20
60.001400
11
2.577880
21
77.017400
0
LINE
8
Layer 1
10
2.577880
20
77.017400
11
8.046680
21
77.017400
0
LINE
8
Layer 1
10
8.046680
20
77.017400
11
8.046680
21
74.517400
0
LINE
8
Layer 1
10
8.046680
20
74.517400
11
9.118953
21
75.786444
0
LINE
8
Layer 1
10
9.118953
20
75.786444
11
10.343580
21
76.689300
0
LINE
8
Layer 1
10
10.343580
20
76.689300
11
11.718080
21
77.239595
0
LINE
8
Layer 1
10
11.718080
20
77.239595
11
13.218580
21
77.423680
0
LINE
8
Layer 1
10
13.218580
20
77.423680
11
14.877268
21
77.207860
0
LINE
8
Layer 1
10
14.877268
20
77.207860
11
16.327980
21
76.564300
0
LINE
8
Layer 1
10
16.327980
20
76.564300
11
17.518399
21
75.548175
0
LINE
8
Layer 1
10
17.518399
20
75.548175
11
18.374880
21
74.189300
0
LINE
8
Layer 1
10
18.374880
20
74.189300
11
18.375000
21
74.188600
0
LINE
8
Layer 1
10
2.859400
20
82.672600
11
9.390600
21
82.672600
0
LINE
8
Layer 1
10
9.390600
20
82.672600
11
17.640600
21
67.125600
0
LINE
8
Layer 1
10
17.640600
20
67.125600
11
17.640600
21
82.672600
0
LINE
8
Layer 1
10
17.640600
20
82.672600
11
23.187500
21
82.672600
0
LINE
8
Layer 1
10
23.187500
20
82.672600
11
23.187500
21
60.000600
0
LINE
8
Layer 1
10
23.187500
20
60.000600
11
16.640600
21
60.000600
0
LINE
8
Layer 1
10
16.640600
20
60.000600
11
8.406200
21
75.562600
0
LINE
8
Layer 1
10
8.406200
20
75.562600
11
8.406200
21
60.000600
0
LINE
8
Layer 1
10
8.406200
20
60.000600
11
2.859300
21
60.000600
0
LINE
8
Layer 1
10
2.859300
20
60.000600
11
2.859400
21
82.672600
0
LINE
8
Layer 1
10
2.437500
20
66.625600
11
2.437500
21
77.016600
0
LINE
8
Layer 1
10
2.437500
20
77.016600
11
7.906300
21
77.016600
0
LINE
8
Layer 1
10
7.906300
20
77.016600
11
7.906300
21
75.313500
0
LINE
8
Layer 1
10
7.906300
20
75.313500
11
7.890675
21
71.829100
0
LINE
8
Layer 1
10
7.890675
20
71.829100
11
7.875050
21
69.047900
0
LINE
8
Layer 1
10
7.875050
20
69.047900
11
7.968800
21
66.094800
0
LINE
8
Layer 1
10
7.968800
20
66.094800
11
8.343800
21
64.782300
0
LINE
8
Layer 1
10
8.343800
20
64.782300
11
8.722220
21
64.308180
0
LINE
8
Layer 1
10
8.722220
20
64.308180
11
9.203180
21
63.954180
0
LINE
8
Layer 1
10
9.203180
20
63.954180
11
9.788629
21
63.743243
0
LINE
8
Layer 1
10
9.788629
20
63.743243
11
10.453180
21
63.672930
0
LINE
8
Layer 1
10
10.453180
20
63.672930
11
11.257369
21
63.753619
0
LINE
8
Layer 1
10
11.257369
20
63.753619
11
11.970743
21
63.996176
0
LINE
8
Layer 1
10
11.970743
20
63.996176
11
12.593310
21
64.401335
0
LINE
8
Layer 1
10
12.593310
20
64.401335
11
13.125080
21
64.969830
0
LINE
8
Layer 1
10
13.125080
20
64.969830
11
13.548358
21
65.689185
0
LINE
8
Layer 1
10
13.548358
20
65.689185
11
13.851154
21
66.535242
0
LINE
8
Layer 1
10
13.851154
20
66.535242
11
14.093830
21
68.610430
0
LINE
8
Layer 1
10
14.093830
20
68.610430
11
14.093800
21
77.016600
0
LINE
8
Layer 1
10
14.093800
20
77.016600
11
19.531300
21
77.016600
0
LINE
8
Layer 1
10
19.531300
20
77.016600
11
19.531300
21
60.000600
0
LINE
8
Layer 1
10
19.531300
20
60.000600
11
14.093800
21
60.000600
0
LINE
8
Layer 1
10
14.093800
20
60.000600
11
14.093800
21
62.453700
0
LINE
8
Layer 1
10
14.093800
20
62.453700
11
12.822805
21
61.163641
0
LINE
8
Layer 1
10
12.822805
20
61.163641
11
11.484400
21
60.266200
0
LINE
8
Layer 1
10
11.484400
20
60.266200
11
10.037624
21
59.738859
0
LINE
8
Layer 1
10
10.037624
20
59.738859
11
8.453200
21
59.563080
0
LINE
8
Layer 1
10
8.453200
20
59.563080
11
7.070284
21
59.675202
0
LINE
8
Layer 1
10
7.070284
20
59.675202
11
5.862400
21
60.011815
0
LINE
8
Layer 1
10
5.862400
20
60.011815
11
4.828816
21
60.573285
0
LINE
8
Layer 1
10
4.828816
20
60.573285
11
3.968800
21
61.359980
0
LINE
8
Layer 1
10
3.968800
20
61.359980
11
3.297803
21
62.367835
0
LINE
8
Layer 1
10
3.297803
20
62.367835
11
2.819425
21
63.581142
0
LINE
8
Layer 1
10
2.819425
20
63.581142
11
2.532934
21
65.000269
0
LINE
8
Layer 1
10
2.532934
20
65.000269
11
2.437600
21
66.625580
0
LINE
8
Layer 1
10
2.437600
20
66.625580
11
2.437500
21
66.625600
0
LINE
8
Layer 1
10
2.859400
20
82.672600
11
12.562500
21
82.672600
0
LINE
8
Layer 1
10
12.562500
20
82.672600
11
14.599305
21
82.552483
0
LINE
8
Layer 1
10
14.599305
20
82.552483
11
16.385262
21
82.192130
0
LINE
8
Layer 1
10
16.385262
20
82.192130
11
17.919989
21
81.591537
0
LINE
8
Layer 1
10
17.919989
20
81.591537
11
19.203100
21
80.750700
0
LINE
8
Layer 1
10
19.203100
20
80.750700
11
20.221109
21
79.688033
0
LINE
8
Layer 1
10
20.221109
20
79.688033
11
20.948700
21
78.422088
0
LINE
8
Layer 1
10
20.948700
20
78.422088
11
21.385516
21
76.953248
0
LINE
8
Layer 1
10
21.385516
20
76.953248
11
21.531200
21
75.281900
0
LINE
8
Layer 1
10
21.531200
20
75.281900
11
21.385510
21
73.603192
0
LINE
8
Layer 1
10
21.385510
20
73.603192
11
20.948685
21
72.129563
0
LINE
8
Layer 1
10
20.948685
20
72.129563
11
20.221092
21
70.861002
0
LINE
8
Layer 1
10
20.221092
20
70.861002
11
19.203100
21
69.797500
0
LINE
8
Layer 1
10
19.203100
20
69.797500
11
17.919947
21
68.956697
0
LINE
8
Layer 1
10
17.919947
20
68.956697
11
16.385225
21
68.356100
0
LINE
8
Layer 1
10
16.385225
20
68.356100
11
14.599291
21
67.995728
0
LINE
8
Layer 1
10
14.599291
20
67.995728
11
12.562500
21
67.875600
0
LINE
8
Layer 1
10
12.562500
20
67.875600
11
8.703100
21
67.875600
0
LINE
8
Layer 1
10
8.703100
20
67.875600
11
8.703100
21
60.000600
0
LINE
8
Layer 1
10
8.703100
20
60.000600
11
2.859300
21
60.000600
0
LINE
8
Layer 1
10
2.859300
20
60.000600
11
2.859400
21
82.672600
0
LINE
8
Layer 1
10
8.703200
20
78.438200
11
8.703200
21
72.110100
0
LINE
8
Layer 1
10
8.703200
20
72.110100
11
11.937600
21
72.110100
0
LINE
8
Layer 1
10
11.937600
20
72.110100
11
13.443450
21
72.316155
0
LINE
8
Layer 1
10
13.443450
20
72.316155
11
14.562600
21
72.938220
0
LINE
8
Layer 1
10
14.562600
20
72.938220
11
15.265725
21
73.937238
0
LINE
8
Layer 1
10
15.265725
20
73.937238
11
15.500100
21
75.282020
0
LINE
8
Layer 1
10
15.500100
20
75.282020
11
15.265725
21
76.620408
0
LINE
8
Layer 1
10
15.265725
20
76.620408
11
14.562600
21
77.610120
0
LINE
8
Layer 1
10
14.562600
20
77.610120
11
13.443454
21
78.230723
0
LINE
8
Layer 1
10
13.443454
20
78.230723
11
11.937600
21
78.438240
0
LINE
8
Layer 1
10
11.937600
20
78.438240
11
8.703200
21
78.438200
0
LINE
8
Layer 1
10
2.609400
20
77.016600
11
8.046900
21
77.016600
0
LINE
8
Layer 1
10
8.046900
20
77.016600
11
8.046900
21
60.297600
0
LINE
8
Layer 1
10
8.046900
20
60.297600
11
7.944361
21
58.695808
0
LINE
8
Layer 1
10
7.944361
20
58.695808
11
7.636745
21
57.294688
0
LINE
8
Layer 1
10
7.636745
20
57.294688
11
7.124057
21
56.094248
0
LINE
8
Layer 1
10
7.124057
20
56.094248
11
6.406300
21
55.094500
0
LINE
8
Layer 1
10
6.406300
20
55.094500
11
5.493802
21
54.302094
0
LINE
8
Layer 1
10
5.493802
20
54.302094
11
4.397488
21
53.735625
0
LINE
8
Layer 1
10
4.397488
20
53.735625
11
3.118080
21
53.395469
0
LINE
8
Layer 1
10
3.118080
20
53.395469
11
1.656300
21
53.282000
0
LINE
8
Layer 1
10
1.656300
20
53.282000
11
-1.031200
21
53.282000
0
LINE
8
Layer 1
10
-1.031200
20
53.282000
11
-1.031200
21
56.860100
0
LINE
8
Layer 1
10
-1.031200
20
56.860100
11
-0.093700
21
56.860100
0
LINE
8
Layer 1
10
-0.093700
20
56.860100
11
1.210487
21
57.035882
0
LINE
8
Layer 1
10
1.210487
20
57.035882
11
2.031300
21
57.563220
0
LINE
8
Layer 1
10
2.031300
20
57.563220
11
2.463914
21
58.592035
0
LINE
8
Layer 1
10
2.463914
20
58.592035
11
2.609420
21
60.297620
0
LINE
8
Layer 1
10
2.609420
20
60.297620
11
2.609400
21
77.016600
0
LINE
8
Layer 1
10
2.609400
20
83.641600
11
8.046900
21
83.641600
0
LINE
8
Layer 1
10
8.046900
20
83.641600
11
8.046900
21
79.204100
0
LINE
8
Layer 1
10
8.046900
20
79.204100
11
2.609400
21
79.204100
0
LINE
8
Layer 1
10
2.609400
20
79.204100
11
2.609400
21
83.641600
0
LINE
8
Layer 1
10
18.910200
20
59.498300
11
16.854776
21
59.200077
0
LINE
8
Layer 1
10
16.854776
20
59.200077
11
14.932107
21
58.410674
0
LINE
8
Layer 1
10
14.932107
20
58.410674
11
13.250710
21
57.188749
0
LINE
8
Layer 1
10
13.250710
20
57.188749
11
11.919100
21
55.592960
0
LINE
8
Layer 1
10
11.919100
20
55.592960
11
11.112276
21
53.997950
0
LINE
8
Layer 1
10
11.112276
20
53.997950
11
10.653311
21
52.269354
0
LINE
8
Layer 1
10
10.653311
20
52.269354
11
10.557168
21
50.483906
0
LINE
8
Layer 1
10
10.557168
20
50.483906
11
10.838810
21
48.718340
0
LINE
8
Layer 1
10
10.838810
20
48.718340
11
11.652323
21
46.737350
0
LINE
8
Layer 1
10
11.652323
20
46.737350
11
12.930370
21
45.020330
0
LINE
8
Layer 1
10
12.930370
20
45.020330
11
11.475080
21
42.298140
0
LINE
8
Layer 1
10
11.475080
20
42.298140
11
10.387024
21
43.469059
0
LINE
8
Layer 1
10
10.387024
20
43.469059
11
8.954030
21
44.175590
0
LINE
8
Layer 1
10
8.954030
20
44.175590
11
7.367507
21
44.424958
0
LINE
8
Layer 1
10
7.367507
20
44.424958
11
6.566974
21
44.351519
0
LINE
8
Layer 1
10
6.566974
20
44.351519
11
5.793270
21
44.129154
0
LINE
8
Layer 1
10
5.793270
20
44.129154
11
4.894070
21
43.649705
0
LINE
8
Layer 1
10
4.894070
20
43.649705
11
4.128504
21
42.975904
0
LINE
8
Layer 1
10
4.128504
20
42.975904
11
3.535548
21
42.146611
0
LINE
8
Layer 1
10
3.535548
20
42.146611
11
3.154180
21
41.200684
0
LINE
8
Layer 1
10
3.154180
20
41.200684
11
2.685184
21
39.334844
0
LINE
8
Layer 1
10
2.685184
20
39.334844
11
0.546544
21
30.581184
0
LINE
8
Layer 1
10
0.546544
20
30.581184
11
0.541571
21
29.382494
0
LINE
8
Layer 1
10
0.541571
20
29.382494
11
0.865500
21
28.228018
0
LINE
8
Layer 1
10
0.865500
20
28.228018
11
1.481014
21
27.198550
0
LINE
8
Layer 1
10
1.481014
20
27.198550
11
2.350794
21
26.374884
0
LINE
8
Layer 1
10
2.350794
20
26.374884
11
3.102859
21
22.848574
0
LINE
8
Layer 1
10
3.102859
20
22.848574
11
2.267450
21
21.783424
0
LINE
8
Layer 1
10
2.267450
20
21.783424
11
1.727420
21
20.540548
0
LINE
8
Layer 1
10
1.727420
20
20.540548
11
1.510417
21
19.203477
0
LINE
8
Layer 1
10
1.510417
20
19.203477
11
1.644089
21
17.855744
0
LINE
8
Layer 1
10
1.644089
20
17.855744
11
2.107578
21
16.600238
0
LINE
8
Layer 1
10
2.107578
20
16.600238
11
2.869602
21
15.499159
0
LINE
8
Layer 1
10
2.869602
20
15.499159
11
3.876353
21
14.618273
0
LINE
8
Layer 1
10
3.876353
20
14.618273
11
5.074019
21
14.023344
0
LINE
8
Layer 1
10
5.074019
20
14.023344
11
5.866170
21
13.823111
0
LINE
8
Layer 1
10
5.866170
20
13.823111
11
7.427449
21
13.782072
0
LINE
8
Layer 1
10
7.427449
20
13.782072
11
8.120556
21
13.671376
0
LINE
8
Layer 1
10
8.120556
20
13.671376
11
8.832408
21
13.390530
0
LINE
8
Layer 1
10
8.832408
20
13.390530
11
9.509523
21
12.963721
0
LINE
8
Layer 1
10
9.509523
20
12.963721
11
10.098416
21
12.415137
0
LINE
8
Layer 1
10
10.098416
20
12.415137
11
10.545606
21
11.768963
0
LINE
8
Layer 1
10
10.545606
20
11.768963
11
10.797609
21
11.049386
0
LINE
8
Layer 1
10
10.797609
20
11.049386
11
10.800941
21
10.280594
0
LINE
8
Layer 1
10
10.800941
20
10.280594
11
10.502119
21
9.486772
0
LINE
8
Layer 1
10
10.502119
20
9.486772
11
9.566469
21
7.855226
0
LINE
8
Layer 1
10
9.566469
20
7.855226
11
8.729881
21
6.151032
0
LINE
8
Layer 1
10
8.729881
20
6.151032
11
8.141540
21
4.370210
0
LINE
8
Layer 1
10
8.141540
20
4.370210
11
7.950629
21
2.508782
0
LINE
8
Layer 1
10
7.950629
20
2.508782
11
7.946396
21
0.500452
0
LINE
8
Layer 1
10
7.946396
20
0.500452
11
27.420696
21
0.505408
0
LINE
8
Layer 1
10
27.420696
20
0.505408
11
30.449836
21
0.510799
0
LINE
8
Layer 1
10
30.449836
20
0.510799
11
46.394900
21
0.510749
0
LINE
8
Layer 1
10
46.394900
20
0.510749
11
46.393093
21
2.610825
0
LINE
8
Layer 1
10
46.393093
20
2.610825
11
46.224516
21
4.700439
0
LINE
8
Layer 1
10
46.224516
20
4.700439
11
45.835756
21
5.981346
0
LINE
8
Layer 1
10
45.835756
20
5.981346
11
45.243876
21
7.183939
0
LINE
8
Layer 1
10
45.243876
20
7.183939
11
43.842826
21
9.498479
0
LINE
8
Layer 1
10
43.842826
20
9.498479
11
43.462528
21
10.672664
0
LINE
8
Layer 1
10
43.462528
20
10.672664
11
43.653819
21
11.803935
0
LINE
8
Layer 1
10
43.653819
20
11.803935
11
44.390146
21
12.794778
0
LINE
8
Layer 1
10
44.390146
20
12.794778
11
45.644956
21
13.547679
0
LINE
8
Layer 1
10
45.644956
20
13.547679
11
46.999662
21
13.921409
0
LINE
8
Layer 1
10
46.999662
20
13.921409
11
48.123012
21
14.023016
0
LINE
8
Layer 1
10
48.123012
20
14.023016
11
49.119450
21
14.127398
0
LINE
8
Layer 1
10
49.119450
20
14.127398
11
50.093416
21
14.509453
0
LINE
8
Layer 1
10
50.093416
20
14.509453
11
51.037001
21
15.247831
0
LINE
8
Layer 1
10
51.037001
20
15.247831
11
51.785293
21
16.183353
0
LINE
8
Layer 1
10
51.785293
20
16.183353
11
52.311162
21
17.261608
0
LINE
8
Layer 1
10
52.311162
20
17.261608
11
52.587476
21
18.428183
0
LINE
8
Layer 1
10
52.587476
20
18.428183
11
52.569570
21
19.834499
0
LINE
8
Layer 1
10
52.569570
20
19.834499
11
52.177824
21
21.185133
0
LINE
8
Layer 1
10
52.177824
20
21.185133
11
51.684537
21
22.072399
0
LINE
8
Layer 1
10
51.684537
20
22.072399
11
51.032134
21
22.849743
0
LINE
8
Layer 1
10
51.032134
20
22.849743
11
51.791900
21
26.380713
0
LINE
8
Layer 1
10
51.791900
20
26.380713
11
52.641997
21
27.184386
0
LINE
8
Layer 1
10
52.641997
20
27.184386
11
53.251862
21
28.184707
0
LINE
8
Layer 1
10
53.251862
20
28.184707
11
53.583834
21
29.307289
0
LINE
8
Layer 1
10
53.583834
20
29.307289
11
53.600250
21
30.477743
0
LINE
8
Layer 1
10
53.600250
20
30.477743
11
52.914229
21
33.431273
0
LINE
8
Layer 1
10
52.914229
20
33.431273
11
51.826399
21
37.817333
0
LINE
8
Layer 1
10
51.826399
20
37.817333
11
50.860136
21
41.582183
0
LINE
8
Layer 1
10
50.860136
20
41.582183
11
50.269778
21
42.652273
0
LINE
8
Layer 1
10
50.269778
20
42.652273
11
49.407052
21
43.518971
0
LINE
8
Layer 1
10
49.407052
20
43.518971
11
48.345252
21
44.123637
0
LINE
8
Layer 1
10
48.345252
20
44.123637
11
47.157666
21
44.407633
0
LINE
8
Layer 1
10
47.157666
20
44.407633
11
46.179600
21
44.388151
0
LINE
8
Layer 1
10
46.179600
20
44.388151
11
45.220050
21
44.191526
0
LINE
8
Layer 1
10
45.220050
20
44.191526
11
44.316013
21
43.819047
0
LINE
8
Layer 1
10
44.316013
20
43.819047
11
43.504486
21
43.272003
0
LINE
8
Layer 1
10
43.504486
20
43.272003
11
42.790215
21
42.482751
0
LINE
8
Layer 1
10
42.790215
20
42.482751
11
41.443955
21
44.975451
0
LINE
8
Layer 1
10
41.443955
20
44.975451
11
42.541727
21
46.410704
0
LINE
8
Layer 1
10
42.541727
20
46.410704
11
43.314240
21
48.045500
0
LINE
8
Layer 1
10
43.314240
20
48.045500
11
43.731606
21
49.804388
0
LINE
8
Layer 1
10
43.731606
20
49.804388
11
43.763935
21
51.611921
0
LINE
8
Layer 1
10
43.763935
20
51.611921
11
43.370262
21
53.519931
0
LINE
8
Layer 1
10
43.370262
20
53.519931
11
42.554179
21
55.289853
0
LINE
8
Layer 1
10
42.554179
20
55.289853
11
41.365316
21
56.832603
0
LINE
8
Layer 1
10
41.365316
20
56.832603
11
39.853300
21
58.059100
0
LINE
8
Layer 1
10
39.853300
20
58.059100
11
38.333364
21
58.832142
0
LINE
8
Layer 1
10
38.333364
20
58.832142
11
36.689387
21
59.286237
0
LINE
8
Layer 1
10
36.689387
20
59.286237
11
34.988842
21
59.406864
0
LINE
8
Layer 1
10
34.988842
20
59.406864
11
33.299200
21
59.179500
0
LINE
8
Layer 1
10
33.299200
20
59.179500
11
31.761475
21
58.658116
0
LINE
8
Layer 1
10
31.761475
20
58.658116
11
30.350275
21
57.853700
0
LINE
8
Layer 1
10
30.350275
20
57.853700
11
29.115212
21
56.798634
0
LINE
8
Layer 1
10
29.115212
20
56.798634
11
28.105900
21
55.525300
0
LINE
8
Layer 1
10
28.105900
20
55.525300
11
27.188400
21
53.661500
0
LINE
8
Layer 1
10
27.188400
20
53.661500
11
26.523122
21
54.980230
0
LINE
8
Layer 1
10
26.523122
20
54.980230
11
25.558650
21
56.362662
0
LINE
8
Layer 1
10
25.558650
20
56.362662
11
24.345103
21
57.624889
0
LINE
8
Layer 1
10
24.345103
20
57.624889
11
22.932600
21
58.583000
0
LINE
8
Layer 1
10
22.932600
20
58.583000
11
20.977087
21
59.286650
0
LINE
8
Layer 1
10
20.977087
20
59.286650
11
18.910200
21
59.498300
0
LINE
8
Layer 1
10
18.910200
20
59.498300
11
18.910200
21
59.498300
 0 
ENDSEC
 0 
EOF