  0
SECTION
  2
HEADER
  9
$ACADVER
  1
AC1014
  9
$HANDSEED
  5
FFFF
  9
$INSUNITS
 70
     4
  9
$MEASUREMENT
 70
     1
  0
ENDSEC
  0
SECTION
  2
TABLES
  0
TABLE
  2
VPORT
  5
8
330
0
100
AcDbSymbolTable
 70
     4
  0
VPORT
  5
2E
330
8
100
AcDbSymbolTableRecord
100
AcDbViewportTableRecord
  2
*ACTIVE
 70
     0
 10
0.0
 20
0.0
 11
1.0
 21
1.0
 12
210.0
 22
148.5
 13
0.0
 23
0.0
 14
10.0
 24
10.0
 15
10.0
 25
10.0
 16
0.0
 26
0.0
 36
1.0
 17
0.0
 27
0.0
 37
0.0
 40
341.0
 41
1.24
 42
50.0
 43
0.0
 44
0.0
 50
0.0
 51
0.0
 71
     0
 72
   100
 73
     1
 74
     3
 75
     0
 76
     0
 77
     0
 78
     0
  0
ENDTAB
  0
TABLE
  2
LTYPE
  5
5
330
0
100
AcDbSymbolTable
 70
     1
  0
LTYPE
  5
14
330
5
100
AcDbSymbolTableRecord
100
AcDbLinetypeTableRecord
  2
BYBLOCK
 70
     0
  3

 72
    65
 73
     0
 40
0.0
  0
LTYPE
  5
15
330
5
100
AcDbSymbolTableRecord
100
AcDbLinetypeTableRecord
  2
BYLAYER
 70
     0
  3

 72
    65
 73
     0
 40
0.0
  0
LTYPE
  5
16
330
5
100
AcDbSymbolTableRecord
100
AcDbLinetypeTableRecord
  2
CONTINUOUS
 70
     0
  3
Solid line
 72
    65
 73
     0
 40
0.0
  0
ENDTAB
  0
TABLE
  2
LAYER
  5
2
100
AcDbSymbolTable
 70
1
  0
LAYER
  5
50
100
AcDbSymbolTableRecord
100
AcDbLayerTableRecord
  2
0
 70
0
  6
CONTINUOUS
  0
ENDTAB
  0
TABLE
  2
STYLE
  5
3
330
0
100
AcDbSymbolTable
 70
     1
  0
STYLE
  5
11
330
3
100
AcDbSymbolTableRecord
100
AcDbTextStyleTableRecord
  2
STANDARD
 70
     0
 40
0.0
 41
1.0
 50
0.0
 71
     0
 42
2.5
  3
txt
  4

  0
ENDTAB
  0
TABLE
  2
VIEW
  5
6
330
0
100
AcDbSymbolTable
 70
     0
  0
ENDTAB
  0
TABLE
  2
UCS
  5
7
330
0
100
AcDbSymbolTable
 70
     0
  0
ENDTAB
  0
TABLE
  2
APPID
  5
9
330
0
100
AcDbSymbolTable
 70
     2
  0
APPID
  5
12
330
9
100
AcDbSymbolTableRecord
100
AcDbRegAppTableRecord
  2
ACAD
 70
     0
  0
ENDTAB
  0
TABLE
  2
DIMSTYLE
  5
A
330
0
100
AcDbSymbolTable
 70
     1
  0
DIMSTYLE
105
27
330
A
100
AcDbSymbolTableRecord
100
AcDbDimStyleTableRecord
  2
ISO-25
 70
     0
  3

  4

  5

  6

  7

 40
1.0
 41
2.5
 42
0.625
 43
3.75
 44
1.25
 45
0.0
 46
0.0
 47
0.0
 48
0.0
140
2.5
141
2.5
142
0.0
143
0.03937007874016
144
1.0
145
0.0
146
1.0
147
0.625
 71
     0
 72
     0
 73
     0
 74
     0
 75
     0
 76
     0
 77
     1
 78
     8
170
     0
171
     3
172
     1
173
     0
174
     0
175
     0
176
     0
177
     0
178
     0
270
     2
271
     2
272
     2
273
     2
274
     3
340
11
275
     0
280
     0
281
     0
282
     0
283
     0
284
     8
285
     0
286
     0
287
     3
288
     0
  0
ENDTAB
  0
TABLE
  2
BLOCK_RECORD
  5
1
330
0
100
AcDbSymbolTable
 70
     1
  0
BLOCK_RECORD
  5
1F
330
1
100
AcDbSymbolTableRecord
100
AcDbBlockTableRecord
  2
*MODEL_SPACE
  0
BLOCK_RECORD
  5
1B
330
1
100
AcDbSymbolTableRecord
100
AcDbBlockTableRecord
  2
*PAPER_SPACE
  0
ENDTAB
  0
ENDSEC
  0
SECTION
  2
BLOCKS
  0
BLOCK
  5
20
330
1F
100
AcDbEntity
  8
0
100
AcDbBlockBegin
  2
*MODEL_SPACE
 70
     0
 10
0.0
 20
0.0
 30
0.0
  3
*MODEL_SPACE
  1

  0
ENDBLK
  5
21
330
1F
100
AcDbEntity
  8
0
100
AcDbBlockEnd
  0
BLOCK
  5
1C
330
1B
100
AcDbEntity
 67
     1
  8
0
100
AcDbBlockBegin
  2
*PAPER_SPACE
  1

  0
ENDBLK
  5
1D
330
1B
100
AcDbEntity
 67
     1
  8
0
100
AcDbBlockEnd
  0
ENDSEC
  0
SECTION
  2
ENTITIES
  0
SPLINE
  5
100
100
AcDbEntity
  8
0
 62
1
100
AcDbSpline
 70
8
 71
3
 72
8
 73
4
 74
0
 40
0
 40
0
 40
0
 40
0
 40
1
 40
1
 40
1
 40
1
 10
18.910182
 20
59.498217
 30
0.0
 10
16.129339
 20
59.454111
 30
0.0
 10
13.413139
 20
57.943766
 30
0.0
 10
11.919082
 20
55.592880
 30
0.0
  0
SPLINE
  5
101
100
AcDbEntity
  8
0
 62
1
100
AcDbSpline
 70
8
 71
3
 72
8
 73
4
 74
0
 40
0
 40
0
 40
0
 40
0
 40
1
 40
1
 40
1
 40
1
 10
11.919082
 20
55.592880
 30
0.0
 10
10.618061
 20
53.589360
 30
0.0
 10
10.204762
 20
51.024995
 30
0.0
 10
10.838791
 20
48.718256
 30
0.0
  0
SPLINE
  5
102
100
AcDbEntity
  8
0
 62
1
100
AcDbSpline
 70
8
 71
3
 72
8
 73
4
 74
0
 40
0
 40
0
 40
0
 40
0
 40
1
 40
1
 40
1
 40
1
 10
10.838791
 20
48.718256
 30
0.0
 10
11.214203
 20
47.337327
 30
0.0
 10
11.935561
 20
46.049212
 30
0.0
 10
12.930346
 20
45.020247
 30
0.0
  0
SPLINE
  5
103
100
AcDbEntity
  8
0
 62
1
100
AcDbSpline
 70
8
 71
3
 72
8
 73
4
 74
0
 40
0
 40
0
 40
0
 40
0
 40
1
 40
1
 40
1
 40
1
 10
12.930346
 20
45.020247
 30
0.0
 10
12.364332
 20
44.159426
 30
0.0
 10
11.874921
 20
43.247811
 30
0.0
 10
11.475057
 20
42.298057
 30
0.0
  0
SPLINE
  5
104
100
AcDbEntity
  8
0
 62
1
100
AcDbSpline
 70
8
 71
3
 72
8
 73
4
 74
0
 40
0
 40
0
 40
0
 40
0
 40
1
 40
1
 40
1
 40
1
 10
11.475057
 20
42.298057
 30
0.0
 10
10.902174
 20
43.205120
 30
0.0
 10
9.986805
 20
43.887626
 30
0.0
 10
8.954010
 20
44.175502
 30
0.0
  0
SPLINE
  5
105
100
AcDbEntity
  8
0
 62
1
100
AcDbSpline
 70
8
 71
3
 72
8
 73
4
 74
0
 40
0
 40
0
 40
0
 40
0
 40
1
 40
1
 40
1
 40
1
 10
8.954010
 20
44.175502
 30
0.0
 10
7.934467
 20
44.501014
 30
0.0
 10
6.796411
 20
44.530450
 30
0.0
 10
5.793248
 20
44.129067
 30
0.0
  0
SPLINE
  5
106
100
AcDbEntity
  8
0
 62
1
100
AcDbSpline
 70
8
 71
3
 72
8
 73
4
 74
0
 40
0
 40
0
 40
0
 40
0
 40
1
 40
1
 40
1
 40
1
 10
5.793248
 20
44.129067
 30
0.0
 10
4.522545
 20
43.636640
 30
0.0
 10
3.504268
 20
42.522319
 30
0.0
 10
3.154157
 20
41.200593
 30
0.0
  0
SPLINE
  5
107
100
AcDbEntity
  8
0
 62
1
100
AcDbSpline
 70
8
 71
3
 72
8
 73
4
 74
0
 40
0
 40
0
 40
0
 40
0
 40
1
 40
1
 40
1
 40
1
 10
3.154157
 20
41.200593
 30
0.0
 10
2.975930
 20
40.583295
 30
0.0
 10
2.851572
 20
39.954125
 30
0.0
 10
2.685161
 20
39.334752
 30
0.0
  0
SPLINE
  5
108
100
AcDbEntity
  8
0
 62
1
100
AcDbSpline
 70
8
 71
3
 72
8
 73
4
 74
0
 40
0
 40
0
 40
0
 40
0
 40
1
 40
1
 40
1
 40
1
 10
2.685161
 20
39.334752
 30
0.0
 10
1.965206
 20
36.418629
 30
0.0
 10
1.228212
 20
33.506398
 30
0.0
 10
0.546525
 20
30.581087
 30
0.0
  0
SPLINE
  5
109
100
AcDbEntity
  8
0
 62
1
100
AcDbSpline
 70
8
 71
3
 72
8
 73
4
 74
0
 40
0
 40
0
 40
0
 40
0
 40
1
 40
1
 40
1
 40
1
 10
0.546525
 20
30.581087
 30
0.0
 10
0.304040
 20
28.989263
 30
0.0
 10
1.038144
 20
27.299901
 30
0.0
 10
2.350777
 20
26.374786
 30
0.0
  0
SPLINE
  5
10a
100
AcDbEntity
  8
0
 62
1
100
AcDbSpline
 70
8
 71
3
 72
8
 73
4
 74
0
 40
0
 40
0
 40
0
 40
0
 40
1
 40
1
 40
1
 40
1
 10
2.350777
 20
26.374786
 30
0.0
 10
2.596372
 20
25.198316
 30
0.0
 10
2.852787
 20
24.024055
 30
0.0
 10
3.102842
 20
22.848478
 30
0.0
  0
SPLINE
  5
10b
100
AcDbEntity
  8
0
 62
1
100
AcDbSpline
 70
8
 71
3
 72
8
 73
4
 74
0
 40
0
 40
0
 40
0
 40
0
 40
1
 40
1
 40
1
 40
1
 10
3.102842
 20
22.848478
 30
0.0
 10
1.804327
 20
21.583891
 30
0.0
 10
1.219773
 20
19.622609
 30
0.0
 10
1.644074
 20
17.855648
 30
0.0
  0
SPLINE
  5
10c
100
AcDbEntity
  8
0
 62
1
100
AcDbSpline
 70
8
 71
3
 72
8
 73
4
 74
0
 40
0
 40
0
 40
0
 40
0
 40
1
 40
1
 40
1
 40
1
 10
1.644074
 20
17.855648
 30
0.0
 10
2.039120
 20
16.107920
 30
0.0
 10
3.373752
 20
14.596615
 30
0.0
 10
5.074002
 20
14.023245
 30
0.0
  0
SPLINE
  5
10d
100
AcDbEntity
  8
0
 62
1
100
AcDbSpline
 70
8
 71
3
 72
8
 73
4
 74
0
 40
0
 40
0
 40
0
 40
0
 40
1
 40
1
 40
1
 40
1
 10
5.074002
 20
14.023245
 30
0.0
 10
5.824254
 20
13.764162
 30
0.0
 10
5.651677
 20
13.828798
 30
0.0
 10
7.427428
 20
13.781974
 30
0.0
  0
SPLINE
  5
10e
100
AcDbEntity
  8
0
 62
1
100
AcDbSpline
 70
8
 71
3
 72
8
 73
4
 74
0
 40
0
 40
0
 40
0
 40
0
 40
1
 40
1
 40
1
 40
1
 10
7.427428
 20
13.781974
 30
0.0
 10
9.203179
 20
13.735149
 30
0.0
 10
11.749363
 20
11.615401
 30
0.0
 10
10.502096
 20
9.486671
 30
0.0
  0
SPLINE
  5
10f
100
AcDbEntity
  8
0
 62
1
100
AcDbSpline
 70
8
 71
3
 72
8
 73
4
 74
0
 40
0
 40
0
 40
0
 40
0
 40
1
 40
1
 40
1
 40
1
 10
10.502096
 20
9.486671
 30
0.0
 10
9.254828
 20
7.357942
 30
0.0
 10
7.894602
 20
5.234751
 30
0.0
 10
7.971315
 20
2.697342
 30
0.0
  0
SPLINE
  5
110
100
AcDbEntity
  8
0
 62
1
100
AcDbSpline
 70
8
 71
3
 72
8
 73
4
 74
0
 40
0
 40
0
 40
0
 40
0
 40
1
 40
1
 40
1
 40
1
 10
7.971315
 20
2.697342
 30
0.0
 10
7.969873
 20
2.027900
 30
0.0
 10
7.932366
 20
1.579739
 30
0.0
 10
8.136323
 20
0.870038
 30
0.0
  0
SPLINE
  5
111
100
AcDbEntity
  8
0
 62
1
100
AcDbSpline
 70
8
 71
3
 72
8
 73
4
 74
0
 40
0
 40
0
 40
0
 40
0
 40
1
 40
1
 40
1
 40
1
 10
8.136323
 20
0.870038
 30
0.0
 10
8.521240
 20
0.286007
 30
0.0
 10
23.370256
 20
0.535919
 30
0.0
 10
30.449825
 20
0.510706
 30
0.0
  0
SPLINE
  5
112
100
AcDbEntity
  8
0
 62
1
100
AcDbSpline
 70
8
 71
3
 72
8
 73
4
 74
0
 40
0
 40
0
 40
0
 40
0
 40
1
 40
1
 40
1
 40
1
 10
46.394892
 20
0.510706
 30
0.0
 10
47.142275
 20
0.708769
 30
0.0
 10
46.472760
 20
3.317705
 30
0.0
 10
46.224508
 20
4.700397
 30
0.0
  0
SPLINE
  5
113
100
AcDbEntity
  8
0
 62
1
100
AcDbSpline
 70
8
 71
3
 72
8
 73
4
 74
0
 40
0
 40
0
 40
0
 40
0
 40
1
 40
1
 40
1
 40
1
 10
46.224508
 20
4.700397
 30
0.0
 10
45.885136
 20
6.476519
 30
0.0
 10
44.742742
 20
7.947593
 30
0.0
 10
43.842816
 20
9.498439
 30
0.0
  0
SPLINE
  5
114
100
AcDbEntity
  8
0
 62
1
100
AcDbSpline
 70
8
 71
3
 72
8
 73
4
 74
0
 40
0
 40
0
 40
0
 40
0
 40
1
 40
1
 40
1
 40
1
 10
43.842816
 20
9.498439
 30
0.0
 10
42.942891
 20
11.049284
 30
0.0
 10
43.638012
 20
12.745742
 30
0.0
 10
45.644943
 20
13.547641
 30
0.0
  0
SPLINE
  5
115
100
AcDbEntity
  8
0
 62
1
100
AcDbSpline
 70
8
 71
3
 72
8
 73
4
 74
0
 40
0
 40
0
 40
0
 40
0
 40
1
 40
1
 40
1
 40
1
 10
45.644943
 20
13.547641
 30
0.0
 10
47.651873
 20
14.349541
 30
0.0
 10
48.763341
 20
13.692716
 30
0.0
 10
50.093403
 20
14.509415
 30
0.0
  0
SPLINE
  5
116
100
AcDbEntity
  8
0
 62
1
100
AcDbSpline
 70
8
 71
3
 72
8
 73
4
 74
0
 40
0
 40
0
 40
0
 40
0
 40
1
 40
1
 40
1
 40
1
 10
50.093403
 20
14.509415
 30
0.0
 10
51.469657
 20
15.338306
 30
0.0
 10
52.397474
 20
16.838017
 30
0.0
 10
52.587463
 20
18.428149
 30
0.0
  0
SPLINE
  5
117
100
AcDbEntity
  8
0
 62
1
100
AcDbSpline
 70
8
 71
3
 72
8
 73
4
 74
0
 40
0
 40
0
 40
0
 40
0
 40
1
 40
1
 40
1
 40
1
 10
52.587463
 20
18.428149
 30
0.0
 10
52.703391
 20
19.362071
 30
0.0
 10
52.560336
 20
20.325423
 30
0.0
 10
52.177811
 20
21.185097
 30
0.0
  0
SPLINE
  5
118
100
AcDbEntity
  8
0
 62
1
100
AcDbSpline
 70
8
 71
3
 72
8
 73
4
 74
0
 40
0
 40
0
 40
0
 40
0
 40
1
 40
1
 40
1
 40
1
 10
52.177811
 20
21.185097
 30
0.0
 10
51.906020
 20
21.805991
 30
0.0
 10
51.516069
 20
22.375379
 30
0.0
 10
51.032116
 20
22.849704
 30
0.0
  0
SPLINE
  5
119
100
AcDbEntity
  8
0
 62
1
100
AcDbSpline
 70
8
 71
3
 72
8
 73
4
 74
0
 40
0
 40
0
 40
0
 40
0
 40
1
 40
1
 40
1
 40
1
 10
51.032116
 20
22.849704
 30
0.0
 10
51.285372
 20
24.026696
 30
0.0
 10
51.538627
 20
25.203686
 30
0.0
 10
51.791882
 20
26.380678
 30
0.0
  0
SPLINE
  5
11a
100
AcDbEntity
  8
0
 62
1
100
AcDbSpline
 70
8
 71
3
 72
8
 73
4
 74
0
 40
0
 40
0
 40
0
 40
0
 40
1
 40
1
 40
1
 40
1
 10
51.791882
 20
26.380678
 30
0.0
 10
53.068766
 20
27.288082
 30
0.0
 10
53.805457
 20
28.918244
 30
0.0
 10
53.600236
 20
30.477708
 30
0.0
  0
SPLINE
  5
11b
100
AcDbEntity
  8
0
 62
1
100
AcDbSpline
 70
8
 71
3
 72
8
 73
4
 74
0
 40
0
 40
0
 40
0
 40
0
 40
1
 40
1
 40
1
 40
1
 10
53.600236
 20
30.477708
 30
0.0
 10
53.444583
 20
31.477919
 30
0.0
 10
53.141237
 20
32.446400
 30
0.0
 10
52.914215
 20
33.431243
 30
0.0
  0
SPLINE
  5
11c
100
AcDbEntity
  8
0
 62
1
100
AcDbSpline
 70
8
 71
3
 72
8
 73
4
 74
0
 40
0
 40
0
 40
0
 40
0
 40
1
 40
1
 40
1
 40
1
 10
52.914215
 20
33.431243
 30
0.0
 10
52.557613
 20
34.894702
 30
0.0
 10
52.188804
 20
36.355232
 30
0.0
 10
51.826387
 20
37.817299
 30
0.0
  0
SPLINE
  5
11d
100
AcDbEntity
  8
0
 62
1
100
AcDbSpline
 70
8
 71
3
 72
8
 73
4
 74
0
 40
0
 40
0
 40
0
 40
0
 40
1
 40
1
 40
1
 40
1
 10
51.826387
 20
37.817299
 30
0.0
 10
51.510817
 20
39.073562
 30
0.0
 10
51.194940
 20
40.330736
 30
0.0
 10
50.860124
 20
41.582145
 30
0.0
  0
SPLINE
  5
11e
100
AcDbEntity
  8
0
 62
1
100
AcDbSpline
 70
8
 71
3
 72
8
 73
4
 74
0
 40
0
 40
0
 40
0
 40
0
 40
1
 40
1
 40
1
 40
1
 10
50.860124
 20
41.582145
 30
0.0
 10
50.287131
 20
43.118461
 30
0.0
 10
48.792387
 20
44.268778
 30
0.0
 10
47.157659
 20
44.407590
 30
0.0
  0
SPLINE
  5
11f
100
AcDbEntity
  8
0
 62
1
100
AcDbSpline
 70
8
 71
3
 72
8
 73
4
 74
0
 40
0
 40
0
 40
0
 40
0
 40
1
 40
1
 40
1
 40
1
 10
47.157659
 20
44.407590
 30
0.0
 10
45.857669
 20
44.500282
 30
0.0
 10
44.508401
 20
44.117156
 30
0.0
 10
43.504481
 20
43.271962
 30
0.0
  0
SPLINE
  5
120
100
AcDbEntity
  8
0
 62
1
100
AcDbSpline
 70
8
 71
3
 72
8
 73
4
 74
0
 40
0
 40
0
 40
0
 40
0
 40
1
 40
1
 40
1
 40
1
 10
43.504481
 20
43.271962
 30
0.0
 10
43.234592
 20
43.040222
 30
0.0
 10
42.995138
 20
42.773450
 30
0.0
 10
42.790210
 20
42.482710
 30
0.0
  0
SPLINE
  5
121
100
AcDbEntity
  8
0
 62
1
100
AcDbSpline
 70
8
 71
3
 72
8
 73
4
 74
0
 40
0
 40
0
 40
0
 40
0
 40
1
 40
1
 40
1
 40
1
 10
42.790210
 20
42.482710
 30
0.0
 10
42.412919
 20
43.349804
 30
0.0
 10
41.961227
 20
44.184032
 30
0.0
 10
41.443951
 20
44.975413
 30
0.0
  0
SPLINE
  5
122
100
AcDbEntity
  8
0
 62
1
100
AcDbSpline
 70
8
 71
3
 72
8
 73
4
 74
0
 40
0
 40
0
 40
0
 40
0
 40
1
 40
1
 40
1
 40
1
 10
41.443951
 20
44.975413
 30
0.0
 10
43.111203
 20
46.722519
 30
0.0
 10
43.990800
 20
49.202945
 30
0.0
 10
43.763935
 20
51.611884
 30
0.0
  0
SPLINE
  5
123
100
AcDbEntity
  8
0
 62
1
100
AcDbSpline
 70
8
 71
3
 72
8
 73
4
 74
0
 40
0
 40
0
 40
0
 40
0
 40
1
 40
1
 40
1
 40
1
 10
43.763935
 20
51.611884
 30
0.0
 10
43.542689
 20
54.208357
 30
0.0
 10
42.062720
 20
56.674152
 30
0.0
 10
39.853295
 20
58.059015
 30
0.0
  0
SPLINE
  5
124
100
AcDbEntity
  8
0
 62
1
100
AcDbSpline
 70
8
 71
3
 72
8
 73
4
 74
0
 40
0
 40
0
 40
0
 40
0
 40
1
 40
1
 40
1
 40
1
 10
39.853295
 20
58.059015
 30
0.0
 10
37.939441
 20
59.295937
 30
0.0
 10
35.514789
 20
59.721051
 30
0.0
 10
33.299176
 20
59.179478
 30
0.0
  0
SPLINE
  5
125
100
AcDbEntity
  8
0
 62
1
100
AcDbSpline
 70
8
 71
3
 72
8
 73
4
 74
0
 40
0
 40
0
 40
0
 40
0
 40
1
 40
1
 40
1
 40
1
 10
33.299176
 20
59.179478
 30
0.0
 10
31.186591
 20
58.687373
 30
0.0
 10
29.279079
 20
57.354183
 30
0.0
 10
28.105949
 20
55.525305
 30
0.0
  0
SPLINE
  5
126
100
AcDbEntity
  8
0
 62
1
100
AcDbSpline
 70
8
 71
3
 72
8
 73
4
 74
0
 40
0
 40
0
 40
0
 40
0
 40
1
 40
1
 40
1
 40
1
 10
28.105949
 20
55.525305
 30
0.0
 10
27.726069
 20
54.944382
 30
0.0
 10
27.418623
 20
54.316291
 30
0.0
 10
27.188364
 20
53.661416
 30
0.0
  0
SPLINE
  5
127
100
AcDbEntity
  8
0
 62
1
100
AcDbSpline
 70
8
 71
3
 72
8
 73
4
 74
0
 40
0
 40
0
 40
0
 40
0
 40
1
 40
1
 40
1
 40
1
 10
27.188364
 20
53.661416
 30
0.0
 10
26.523104
 20
55.295553
 30
0.0
 10
24.926309
 20
57.589948
 30
0.0
 10
22.932597
 20
58.582996
 30
0.0
  0
SPLINE
  5
128
100
AcDbEntity
  8
0
 62
1
100
AcDbSpline
 70
8
 71
3
 72
8
 73
4
 74
0
 40
0
 40
0
 40
0
 40
0
 40
1
 40
1
 40
1
 40
1
 10
22.932597
 20
58.582996
 30
0.0
 10
21.692105
 20
59.207741
 30
0.0
 10
20.299210
 20
59.529502
 30
0.0
 10
18.910182
 20
59.498217
 30
0.0
  0
LWPOLYLINE
  5
129
100
AcDbEntity
  8
0
 62
1
100
AcDbPolyline
 90
2
 70
0
 10
30.449825
 20
0.510706
 30
0.0
 10
46.394892
 20
0.510706
 30
0.0
  0
LWPOLYLINE
  5
12a
100
AcDbEntity
  8
0
 62
1
100
AcDbPolyline
 90
1
 70
1
 10
18.910182
 20
59.498217
 30
0.0
  0
ENDSEC
  0
SECTION
  2
OBJECTS
  0
DICTIONARY
  5
C
330
0
100
AcDbDictionary
  3
ACAD_GROUP
350
D
  3
ACAD_MLINESTYLE
350
17
  0
DICTIONARY
  5
D
330
C
100
AcDbDictionary
  0
DICTIONARY
  5
1A
330
C
100
AcDbDictionary
  0
DICTIONARY
  5
17
330
C
100
AcDbDictionary
  3
STANDARD
350
18
  0
DICTIONARY
  5
19
330
C
100
AcDbDictionary
  0
ENDSEC
  0
EOF
